<svg width="59" height="59" viewBox="0 0 59 59" fill="none" xmlns="http://www.w3.org/2000/svg">
<path d="M55.41 25.91H33.09V3.59003C33.09 1.60946 31.4847 0 29.5 0C27.5194 0 25.91 1.60529 25.91 3.59003V25.91H3.59004C1.60948 25.91 0 27.5153 0 29.5C0 31.4806 1.60531 33.09 3.59004 33.09H25.91V55.4099C25.91 57.3905 27.5153 59 29.5 59C31.4806 59 33.09 57.3947 33.09 55.4099V33.09H55.41C57.3905 33.09 59 31.4847 59 29.5C59 27.5194 57.3905 25.91 55.41 25.91Z" fill="white"/>
<path d="M50.3603 45.2819L34.5783 29.4999L50.3603 13.7179C51.7613 12.317 51.7613 10.0445 50.3603 8.64352C48.9593 7.24253 46.6868 7.24253 45.2858 8.64352L29.5038 24.4255L13.7218 8.64352C12.3208 7.24253 10.0484 7.24253 8.64742 8.64352C7.24643 10.0445 7.24643 12.317 8.64742 13.7179L24.4294 29.4999L8.64742 45.2819C7.24643 46.6829 7.24643 48.9554 8.64742 50.3563C10.0484 51.7573 12.3208 51.7573 13.7218 50.3563L29.5038 34.5743L45.2858 50.3563C46.6868 51.7573 48.9593 51.7573 50.3603 50.3563C51.7613 48.9554 51.7613 46.6829 50.3603 45.2819Z" fill="white"/>
</svg>
