<svg width="60" height="57" viewBox="0 0 60 57" fill="white" xmlns="http://www.w3.org/2000/svg">
<g clip-path="url(#clip0)">
<path fill-rule="evenodd" clip-rule="evenodd" d="M12.7277 22.0645L11.455 22.469C7.52769 23.7009 4.23678 25.3557 1.41859 27.4886C0.0731397 28.4999 -0.0723147 29.5848 0.0367762 30.3203C0.200413 31.3867 0.909504 32.159 2.18223 32.637C4.23678 33.3909 6.29132 34.1632 8.34587 34.9354C8.54587 34.1999 8.74587 33.4828 8.94587 32.7657C9.74587 30.0261 10.6368 27.3599 11.6186 24.7857C11.964 23.8664 12.3459 22.9654 12.7277 22.0645Z" />
<path fill-rule="evenodd" clip-rule="evenodd" d="M59.8911 16.8242C59.7457 16.5484 59.5093 16.4932 59.273 16.4932C59.0184 16.4932 58.7639 16.5668 58.5275 16.5852C55.4911 16.8242 52.5093 17.339 49.5821 18.1113C43.6184 19.6558 38.0911 21.9726 32.9275 24.9513C27.8548 27.8932 23.1639 31.4787 18.782 35.6158C18.6548 35.6158 18.5275 35.6158 18.4002 35.6158C22.2548 29.8055 27.0184 24.9329 32.4911 20.8142C33.8548 19.8029 35.2366 18.81 36.6911 17.8723C38.8366 16.4932 38.873 16.4932 38.3093 14.0477C37.5275 10.7197 36.8911 7.35484 35.8548 4.10032C35.582 3.21774 35.273 2.35355 34.9275 1.48935C34.4911 0.478065 34.1457 0 33.6548 0C33.273 0 32.8002 0.294194 32.1457 0.845806C29.6002 2.9971 27.5639 5.60806 25.6548 8.31097C22.2184 13.2019 19.4002 18.3503 17.073 23.7194C15.1639 28.1139 13.6184 32.6923 12.3639 37.3626C12.1275 38.2084 11.8911 39.0358 11.6911 39.8816C10.473 44.8094 9.50932 49.7739 9.20023 54.8487C9.16387 55.5658 8.76387 56.6139 9.61841 56.9448C9.7275 56.9816 9.80023 57 9.89114 57C10.473 57 10.8366 56.1542 11.2184 55.7129C14.5275 51.9252 17.8002 48.119 21.3093 44.5152C26.073 39.661 31.1457 35.1929 36.6911 31.3868C39.5275 29.4377 42.5093 27.6358 45.6366 26.0729C45.7821 26.0913 45.9275 26.1097 46.0911 26.1281C45.5275 26.5877 44.9639 27.029 44.4002 27.4887C42.4366 29.1068 40.5275 30.7984 38.6911 32.5268C35.2911 35.6894 32.1275 39.091 29.4911 42.989C28.8548 43.9084 29.0366 44.2394 29.9639 44.7358C32.782 46.2803 35.5457 47.8984 38.2911 49.59C41.982 51.87 45.6366 54.2235 49.3093 56.5587C49.6002 56.7426 49.8911 56.9632 50.2184 56.9632C50.3275 56.9632 50.4366 56.9448 50.5639 56.8713C51.0548 56.6323 50.982 56.099 50.9639 55.6577C50.9275 54.9406 50.8548 54.2052 50.7275 53.5065C49.8548 48.9097 48.7275 44.3865 47.4366 39.9C47.2366 39.2197 47.073 38.521 46.873 37.8406C46.6366 37.0868 46.673 36.4616 47.0911 35.7997C47.4911 35.1745 47.873 34.531 48.273 33.8874C48.7275 33.1335 49.182 32.3797 49.673 31.6442C51.073 29.5113 52.5457 27.4335 54.0366 25.3742C55.8002 22.9655 57.582 20.6119 59.382 18.24C59.673 17.8355 60.2366 17.4126 59.8911 16.8242Z" />
</g>
<defs>
<clipPath id="clip0">
<rect width="60" height="57" />
</clipPath>
</defs>
</svg>
