<svg width="15" height="16" viewBox="0 0 15 16" fill="none" xmlns="http://www.w3.org/2000/svg">
<g clip-path="url(#clip0)">
<path d="M9.24489 1.79724L8.1355 2.98058L3.14365 8.30547C2.23051 9.28684 2.23327 10.871 3.14985 11.8487C4.06644 12.8263 5.55156 12.8293 6.47159 11.8553L11.4649 6.53063C11.6692 6.31285 11.6692 5.9596 11.4649 5.74169C11.2607 5.52391 10.9296 5.52391 10.7253 5.74169L5.73196 11.0663C5.22142 11.6109 4.39383 11.6109 3.88328 11.0663C3.37274 10.5218 3.37274 9.63899 3.88328 9.09441L8.87514 3.76818L9.98441 2.58483C10.9039 1.60444 12.3943 1.60481 13.3133 2.58544C14.2323 3.5662 14.232 5.15583 13.3126 6.13622L12.388 7.12212L7.21111 12.6441L6.84135 13.0386C5.50815 14.4176 3.38422 14.4001 2.07101 12.9994C0.757907 11.5987 0.741486 9.33314 2.03426 7.91106L7.58098 1.99469C7.71304 1.8537 7.7646 1.64829 7.71625 1.45587C7.66791 1.26331 7.52701 1.1129 7.3465 1.06133C7.16598 1.00977 6.97352 1.06489 6.84135 1.20575L1.29475 7.12212C-0.434392 8.97498 -0.431176 11.9711 1.30198 13.8197C3.03502 15.6684 5.84392 15.6718 7.58098 13.8274L13.1276 7.91106L14.0522 6.92369C15.3344 5.49978 15.3131 3.2432 14.004 1.84733C12.695 0.451348 10.5795 0.429178 9.24489 1.79724Z" fill="black"/>
</g>
<defs>
<clipPath id="clip0">
<rect width="16" height="15" fill="white" transform="translate(0 16) rotate(-90)"/>
</clipPath>
</defs>
</svg>
