<svg width="21" height="19" viewBox="0 0 21 19" fill="none" xmlns="http://www.w3.org/2000/svg">
<path d="M10.2918 10.9991C10.1956 10.9985 10.1035 10.9599 10.0356 10.8917C9.96777 10.8235 9.92969 10.7312 9.92969 10.6349V10.5654C9.93657 10.4738 9.97781 10.3882 10.0452 10.3257C10.1125 10.2632 10.201 10.2285 10.2928 10.2285C10.3847 10.2285 10.4731 10.2632 10.5405 10.3257C10.6078 10.3882 10.6491 10.4738 10.6559 10.5654V10.6349C10.6559 10.7315 10.6176 10.8241 10.5493 10.8924C10.481 10.9607 10.3884 10.9991 10.2918 10.9991V10.9991Z" fill="white"/>
<path d="M10.3495 18.6687C10.2861 18.669 10.2239 18.652 10.1694 18.6196L3.38568 14.7265C3.33139 14.695 3.28613 14.65 3.25425 14.5959C3.22236 14.5418 3.20493 14.4804 3.20361 14.4176L3.10746 9.93945C3.1046 9.87361 3.11966 9.80823 3.15104 9.75028C3.18241 9.69233 3.22893 9.64398 3.28562 9.61039C3.34231 9.57679 3.40706 9.55921 3.47296 9.55952C3.53886 9.55982 3.60344 9.57801 3.65982 9.61213L7.36879 11.8625L9.51889 10.5982L3.22202 6.89331C3.16711 6.8616 3.12155 6.81597 3.08994 6.761C3.05832 6.70604 3.04179 6.64371 3.04199 6.5803C3.0422 6.51698 3.05891 6.45481 3.09048 6.39992C3.12205 6.34503 3.16739 6.29932 3.22202 6.2673L10.0181 2.29034L10.0528 2.26988C10.1079 2.2383 10.1704 2.22168 10.2339 2.22168C10.2974 2.22168 10.3598 2.2383 10.4149 2.26988L17.2764 6.25298C17.3537 6.30442 17.4084 6.38343 17.4294 6.47387C17.4504 6.56431 17.436 6.65934 17.3893 6.73955C17.3425 6.81975 17.2669 6.87906 17.1778 6.90536C17.0888 6.93166 16.9931 6.92295 16.9102 6.88103L10.2329 3.0084L4.1242 6.58235L10.4211 10.2872C10.4753 10.3198 10.5202 10.3658 10.5513 10.4208C10.5825 10.4759 10.5989 10.538 10.5989 10.6013C10.5989 10.6645 10.5825 10.7267 10.5513 10.7817C10.5202 10.8367 10.4753 10.8827 10.4211 10.9153L7.557 12.601C7.50076 12.6347 7.43641 12.6525 7.37084 12.6525C7.30526 12.6525 7.24091 12.6347 7.18467 12.601L3.85007 10.5777L3.92781 14.1906L10.3495 17.8852L16.7691 14.2028V9.84125C16.7653 9.79128 16.7719 9.74106 16.7885 9.69375C16.805 9.64645 16.8312 9.60306 16.8652 9.56632C16.8993 9.52958 16.9406 9.50027 16.9866 9.48022C17.0325 9.46018 17.0821 9.44983 17.1322 9.44983C17.1823 9.44983 17.2319 9.46018 17.2778 9.48022C17.3238 9.50027 17.3651 9.52958 17.3992 9.56632C17.4333 9.60306 17.4594 9.64645 17.4759 9.69375C17.4925 9.74106 17.4991 9.79128 17.4953 9.84125V14.4033C17.4951 14.4671 17.4781 14.5298 17.4462 14.585C17.4143 14.6403 17.3684 14.6863 17.3133 14.7184L10.5254 18.6135C10.4725 18.6467 10.4119 18.6657 10.3495 18.6687V18.6687Z" fill="white"/>
<path d="M10.292 10.9991C10.225 10.9986 10.1593 10.9802 10.1017 10.9459L10.0445 10.9111L3.24842 6.9096C3.22165 6.89736 3.19627 6.88227 3.17273 6.86459L0.417085 5.2423C0.36235 5.21016 0.316965 5.16428 0.28543 5.1092C0.253895 5.05411 0.237305 4.99174 0.237305 4.92827C0.237305 4.8648 0.253895 4.80243 0.28543 4.74735C0.316965 4.69227 0.36235 4.64638 0.417085 4.61425L7.21516 0.629098C7.27121 0.596977 7.33469 0.580078 7.39928 0.580078C7.46388 0.580078 7.52736 0.596977 7.5834 0.629098L17.2762 6.24881C17.3243 6.27678 17.3653 6.31536 17.3961 6.36161C17.4269 6.40786 17.4467 6.46055 17.454 6.51564C17.4613 6.57073 17.4559 6.62677 17.4382 6.67945C17.4205 6.73214 17.391 6.78007 17.3519 6.81958C17.2894 6.8822 17.2063 6.92017 17.118 6.92656C17.0297 6.93295 16.9421 6.90732 16.8712 6.85436L7.40133 1.36353L1.31927 4.9293L3.56961 6.24881L3.6003 6.26927L10.2756 10.2033C10.3246 10.2014 10.3734 10.2093 10.4192 10.2266C10.465 10.2438 10.5069 10.2702 10.5424 10.3039C10.5779 10.3377 10.6062 10.3782 10.6258 10.4231C10.6453 10.468 10.6556 10.5164 10.6561 10.5654V10.6349C10.6567 10.6829 10.6476 10.7305 10.6295 10.7749C10.6114 10.8194 10.5846 10.8597 10.5507 10.8936C10.5168 10.9276 10.4764 10.9544 10.432 10.9725C10.3876 10.9906 10.34 10.9996 10.292 10.9991V10.9991Z" fill="white"/>
<path d="M7.36405 12.6524C7.29764 12.6522 7.23256 12.6338 7.17584 12.5992L0.410498 8.48725C0.356729 8.4546 0.312278 8.40865 0.281429 8.35382C0.250581 8.299 0.234375 8.23715 0.234375 8.17425C0.234375 8.11134 0.250581 8.0495 0.281429 7.99467C0.312278 7.93985 0.356729 7.8939 0.410498 7.86125L3.19069 6.24918C3.25155 6.21327 3.32164 6.19606 3.39221 6.1997C3.46278 6.20333 3.53073 6.22766 3.58757 6.26964L10.4204 10.2875C10.4747 10.3201 10.5195 10.3661 10.5507 10.4211C10.5819 10.4761 10.5982 10.5383 10.5982 10.6015C10.5982 10.6648 10.5819 10.727 10.5507 10.782C10.5195 10.837 10.4747 10.883 10.4204 10.9156L7.55636 12.6013C7.49808 12.6355 7.43161 12.6531 7.36405 12.6524V12.6524ZM1.31882 8.18039L7.36814 11.8628L9.51824 10.5985L3.38095 6.98361L1.31882 8.18039Z" fill="white"/>
<path d="M10.2369 10.9642C10.1713 10.9647 10.1068 10.947 10.0507 10.913L3.24854 6.90945C3.22176 6.89722 3.19638 6.88213 3.17284 6.86445C3.12553 6.82572 3.0878 6.77658 3.0626 6.72087C3.03741 6.66515 3.02543 6.60437 3.02759 6.54326C3.03014 6.48413 3.0469 6.42648 3.07646 6.3752C3.10601 6.32391 3.1475 6.28051 3.19739 6.24867L10.018 2.29011L10.0528 2.26966L12.88 0.633045C12.9357 0.600905 12.9988 0.583984 13.0631 0.583984C13.1274 0.583984 13.1905 0.600905 13.2462 0.633045L20.0504 4.6182C20.1051 4.65033 20.1505 4.69621 20.1821 4.7513C20.2136 4.80638 20.2302 4.86875 20.2302 4.93222C20.2302 4.99569 20.2136 5.05806 20.1821 5.11314C20.1505 5.16823 20.1051 5.21411 20.0504 5.24625L17.2763 6.87058C17.2013 6.92123 17.1099 6.94191 17.0204 6.92854C16.9308 6.91517 16.8495 6.86872 16.7925 6.79836C16.7355 6.72799 16.7069 6.63882 16.7124 6.54843C16.7179 6.45803 16.7571 6.37298 16.8222 6.31004C16.8457 6.28676 16.8718 6.26618 16.8999 6.24867L19.1503 4.92915L13.0621 1.36338L10.4149 2.9018L10.3801 2.92021L4.09753 6.56577L10.2757 10.2031C10.3408 10.1988 10.4059 10.2126 10.4636 10.2429C10.5214 10.2732 10.5696 10.319 10.6031 10.375C10.6281 10.4158 10.6448 10.4612 10.6523 10.5085C10.6598 10.5558 10.6579 10.6041 10.6467 10.6506C10.6355 10.6972 10.6152 10.7411 10.587 10.7798C10.5588 10.8185 10.5232 10.8512 10.4824 10.8762L10.4251 10.911C10.3684 10.9455 10.3033 10.9639 10.2369 10.9642Z" fill="white"/>
<path d="M10.2918 18.5334C10.1956 18.5329 10.1035 18.4943 10.0356 18.426C9.96777 18.3578 9.92969 18.2655 9.92969 18.1693V10.6347C9.93657 10.5431 9.97781 10.4575 10.0452 10.395C10.1125 10.3326 10.201 10.2979 10.2928 10.2979C10.3847 10.2979 10.4731 10.3326 10.5405 10.395C10.6078 10.4575 10.6491 10.5431 10.6559 10.6347V18.1693C10.6559 18.2659 10.6176 18.3585 10.5493 18.4268C10.481 18.4951 10.3884 18.5334 10.2918 18.5334V18.5334Z" fill="white"/>
<path d="M13.1027 12.652C13.0379 12.6513 12.9744 12.6337 12.9186 12.6009L10.1159 10.95C10.0599 10.9184 10.0133 10.8726 9.9806 10.8173C9.94792 10.7621 9.93036 10.6991 9.92969 10.6349V10.5653C9.93051 10.5014 9.94815 10.4388 9.98083 10.3839C10.0135 10.329 10.0601 10.2836 10.1159 10.2523L16.8976 6.25901C16.955 6.22437 17.0208 6.20605 17.0878 6.20605C17.1549 6.20605 17.2207 6.22437 17.2781 6.25901L20.0583 7.87107C20.112 7.90373 20.1565 7.94968 20.1873 8.0045C20.2182 8.05933 20.2344 8.12117 20.2344 8.18408C20.2344 8.24698 20.2182 8.30883 20.1873 8.36365C20.1565 8.41847 20.112 8.46443 20.0583 8.49708L13.2909 12.5988C13.2342 12.6334 13.1691 12.6518 13.1027 12.652V12.652ZM10.9505 10.6063L13.0986 11.8624L19.1561 8.17999L17.0899 6.98321L10.9505 10.6063Z" fill="white"/>
</svg>
