<svg width="19" height="19" viewBox="0 0 19 19" fill="white" xmlns="http://www.w3.org/2000/svg">
<g clip-path="url(#clip0)">
<path d="M18.9963 4.68575C18.9741 4.48139 18.8471 4.30052 18.6573 4.21194L9.75105 0.0556919C9.59188 -0.018564 9.40804 -0.018564 9.24888 0.0556919L0.342631 4.21194C0.152854 4.30052 0.0258652 4.48136 0.00363672 4.68575C0.0031543 4.69002 0 4.74687 0 4.74999V14.8437C0 15.0865 0.147807 15.3049 0.373246 15.395L9.2795 18.9575C9.35026 18.9858 9.42515 19 9.5 19C9.57485 19 9.64974 18.9859 9.7205 18.9575L18.6268 15.395C18.8522 15.3049 19 15.0865 19 14.8437V4.74999C19 4.74687 18.9968 4.68998 18.9963 4.68575ZM9.5 1.24894L16.9124 4.70806L14.0581 5.84976L6.50628 2.64604L9.5 1.24894ZM5.05838 3.32173L12.4931 6.47576L9.5 7.67299L2.08763 4.70806L5.05838 3.32173ZM1.1875 5.62696L8.90625 8.71446V17.5292L1.1875 14.4417V5.62696ZM10.0938 17.5293V8.71446L17.8125 5.62696V14.4417L10.0938 17.5293Z" />
</g>
<defs>
<clipPath id="clip0">
<rect width="19" height="19" />
</clipPath>
</defs>
</svg>
