<svg width="30" height="30" viewBox="0 0 30 30" fill="white" xmlns="http://www.w3.org/2000/svg">
<path d="M29.9941 7.39856C29.9591 7.07588 29.7586 6.7903 29.4589 6.65043L15.3964 0.0879346C15.1451 -0.0293115 14.8548 -0.0293115 14.6035 0.0879346L0.540996 6.65043C0.241348 6.7903 0.0408398 7.07582 0.00574219 7.39856C0.00498047 7.4053 0 7.49506 0 7.49998V23.4375C0 23.8208 0.233379 24.1656 0.589336 24.3079L14.6518 29.9329C14.7636 29.9776 14.8818 30 15 30C15.1182 30 15.2364 29.9777 15.3482 29.9329L29.4107 24.3079C29.7666 24.1656 30 23.8208 30 23.4375V7.49998C30 7.49506 29.9949 7.40524 29.9941 7.39856ZM15 1.97202L26.7037 7.43377L22.1971 9.23647L10.2731 4.17795L15 1.97202ZM7.98691 5.24483L19.7259 10.2249L15 12.1152L3.29625 7.43377L7.98691 5.24483ZM1.875 8.88467L14.0625 13.7597V27.6777L1.875 22.8027V8.88467ZM15.9375 27.6778V13.7597L28.125 8.88467V22.8027L15.9375 27.6778Z"/>
</svg>
