<svg width="60" height="59" viewBox="0 0 60 59" fill="none" xmlns="http://www.w3.org/2000/svg">
<path d="M30.1114 32.8224C29.9271 32.8213 29.7508 32.7474 29.6208 32.6167C29.4909 32.4861 29.418 32.3093 29.418 32.125V31.9918C29.4311 31.8164 29.5101 31.6524 29.6391 31.5328C29.768 31.4132 29.9375 31.3467 30.1134 31.3467C30.2893 31.3467 30.4587 31.4132 30.5876 31.5328C30.7166 31.6524 30.7956 31.8164 30.8088 31.9918V32.125C30.8088 32.31 30.7353 32.4873 30.6045 32.6181C30.4737 32.7489 30.2964 32.8224 30.1114 32.8224Z" fill="#005AFF"/>
<path d="M30.2217 47.5105C30.1004 47.5109 29.9812 47.4784 29.8769 47.4164L16.8857 39.961C16.7818 39.9006 16.6951 39.8144 16.634 39.7108C16.573 39.6072 16.5396 39.4897 16.537 39.3694L16.3529 30.7935C16.3474 30.6674 16.3763 30.5422 16.4364 30.4313C16.4965 30.3203 16.5855 30.2277 16.6941 30.1634C16.8027 30.099 16.9267 30.0654 17.0529 30.0659C17.1791 30.0665 17.3027 30.1013 17.4107 30.1667L24.5135 34.4762L28.6311 32.055L16.5723 24.96C16.4671 24.8993 16.3799 24.8119 16.3194 24.7067C16.2588 24.6014 16.2271 24.482 16.2275 24.3606C16.2279 24.2394 16.2599 24.1203 16.3204 24.0152C16.3809 23.9101 16.4677 23.8225 16.5723 23.7612L29.587 16.1452L29.6536 16.106C29.7591 16.0455 29.8787 16.0137 30.0003 16.0137C30.122 16.0137 30.2415 16.0455 30.347 16.106L43.4871 23.7338C43.6351 23.8323 43.7399 23.9836 43.7801 24.1568C43.8202 24.33 43.7927 24.512 43.7032 24.6656C43.6136 24.8192 43.4688 24.9327 43.2983 24.9831C43.1278 25.0335 42.9445 25.0168 42.7858 24.9365L29.9984 17.5203L18.3 24.3645L30.3588 31.4595C30.4626 31.5218 30.5486 31.61 30.6083 31.7154C30.668 31.8208 30.6993 31.9398 30.6993 32.0609C30.6993 32.182 30.668 32.3011 30.6083 32.4065C30.5486 32.5118 30.4626 32.6 30.3588 32.6623L24.874 35.8905C24.7663 35.9551 24.643 35.9892 24.5175 35.9892C24.3919 35.9892 24.2687 35.9551 24.1609 35.8905L17.775 32.0159L17.9239 38.9346L30.2217 46.01L42.5155 38.9581V30.6055C42.5083 30.5098 42.521 30.4136 42.5526 30.323C42.5843 30.2324 42.6344 30.1493 42.6997 30.079C42.7649 30.0086 42.844 29.9525 42.932 29.9141C43.02 29.8757 43.1149 29.8559 43.2109 29.8559C43.3069 29.8559 43.4018 29.8757 43.4898 29.9141C43.5778 29.9525 43.6569 30.0086 43.7221 30.079C43.7874 30.1493 43.8375 30.2324 43.8691 30.323C43.9008 30.4136 43.9135 30.5098 43.9063 30.6055V39.342C43.9058 39.4642 43.8734 39.5842 43.8122 39.69C43.751 39.7959 43.6633 39.8839 43.5576 39.9453L30.5586 47.4047C30.4572 47.4683 30.3412 47.5047 30.2217 47.5105Z" fill="#005AFF"/>
<path d="M30.1116 32.823C29.9833 32.822 29.8575 32.7869 29.7473 32.7211L29.6376 32.6545L16.6229 24.9914C16.5716 24.968 16.523 24.9391 16.4779 24.9052L11.2007 21.7985C11.0959 21.7369 11.009 21.6491 10.9486 21.5436C10.8882 21.4381 10.8564 21.3186 10.8564 21.1971C10.8564 21.0755 10.8882 20.9561 10.9486 20.8506C11.009 20.7451 11.0959 20.6573 11.2007 20.5957L24.2193 12.964C24.3267 12.9025 24.4482 12.8701 24.5719 12.8701C24.6956 12.8701 24.8172 12.9025 24.9245 12.964L43.4867 23.726C43.5787 23.7795 43.6572 23.8534 43.7162 23.942C43.7752 24.0306 43.8132 24.1315 43.8272 24.237C43.8412 24.3425 43.8308 24.4498 43.7969 24.5507C43.7631 24.6516 43.7065 24.7434 43.6317 24.819C43.5119 24.9389 43.3528 25.0117 43.1838 25.0239C43.0147 25.0361 42.8469 24.987 42.711 24.8856L24.5759 14.3705L12.9285 21.1991L17.238 23.726L17.2967 23.7652L30.0803 31.299C30.174 31.2953 30.2675 31.3104 30.3552 31.3435C30.443 31.3767 30.5232 31.427 30.5912 31.4917C30.6591 31.5563 30.7134 31.634 30.7508 31.72C30.7882 31.806 30.808 31.8986 30.809 31.9924V32.1256C30.81 32.2175 30.7927 32.3086 30.758 32.3937C30.7233 32.4788 30.672 32.5561 30.6071 32.621C30.5421 32.686 30.4648 32.7373 30.3797 32.772C30.2946 32.8067 30.2035 32.824 30.1116 32.823Z" fill="#005AFF"/>
<path d="M24.5052 35.9881C24.378 35.9876 24.2534 35.9524 24.1448 35.8862L11.1888 28.0116C11.0859 27.949 11.0007 27.861 10.9417 27.756C10.8826 27.6511 10.8516 27.5326 10.8516 27.4121C10.8516 27.2917 10.8826 27.1732 10.9417 27.0683C11.0007 26.9633 11.0859 26.8753 11.1888 26.8127L16.513 23.7256C16.6296 23.6568 16.7638 23.6238 16.899 23.6308C17.0341 23.6378 17.1642 23.6843 17.2731 23.7647L30.3583 31.4592C30.4621 31.5215 30.5481 31.6096 30.6078 31.715C30.6674 31.8204 30.6988 31.9394 30.6988 32.0605C30.6988 32.1816 30.6674 32.3007 30.6078 32.4061C30.5481 32.5115 30.4621 32.5996 30.3583 32.6619L24.8735 35.8901C24.7619 35.9556 24.6346 35.9894 24.5052 35.9881ZM12.9283 27.4239L24.513 34.4758L28.6306 32.0547L16.8774 25.132L12.9283 27.4239Z" fill="#005AFF"/>
<path d="M30.0058 32.7564C29.8801 32.7574 29.7567 32.7235 29.6493 32.6585L16.6228 24.9915C16.5715 24.968 16.5229 24.9391 16.4779 24.9053C16.3872 24.8311 16.315 24.737 16.2667 24.6303C16.2185 24.5236 16.1955 24.4072 16.1997 24.2902C16.2046 24.177 16.2367 24.0666 16.2933 23.9683C16.3499 23.8701 16.4293 23.787 16.5249 23.726L29.5866 16.1452L29.6532 16.1061L35.0675 12.9719C35.1741 12.9103 35.295 12.8779 35.4181 12.8779C35.5412 12.8779 35.6621 12.9103 35.7687 12.9719L48.7991 20.6036C48.9039 20.6652 48.9908 20.753 49.0512 20.8585C49.1116 20.964 49.1434 21.0834 49.1434 21.205C49.1434 21.3265 49.1116 21.446 49.0512 21.5515C48.9908 21.657 48.9039 21.7448 48.7991 21.8064L43.4867 24.917C43.3429 25.014 43.168 25.0536 42.9965 25.028C42.825 25.0024 42.6693 24.9135 42.5601 24.7787C42.4509 24.644 42.3962 24.4732 42.4067 24.3001C42.4172 24.127 42.4922 23.9641 42.6169 23.8436C42.662 23.799 42.712 23.7596 42.7658 23.726L47.0753 21.1991L35.4162 14.3705L30.3466 17.3166L30.28 17.3519L18.2487 24.3333L30.0802 31.299C30.2049 31.2908 30.3294 31.3171 30.44 31.3752C30.5506 31.4333 30.643 31.5208 30.707 31.6281C30.755 31.7063 30.787 31.7931 30.8014 31.8837C30.8157 31.9743 30.812 32.0668 30.7906 32.156C30.7691 32.2451 30.7303 32.3292 30.6763 32.4033C30.6223 32.4774 30.5542 32.5402 30.4759 32.588L30.3662 32.6546C30.2576 32.7207 30.133 32.756 30.0058 32.7564Z" fill="#005AFF"/>
<path d="M30.1114 47.2519C29.9271 47.2509 29.7508 47.177 29.6208 47.0463C29.4909 46.9156 29.418 46.7389 29.418 46.5546V32.1256C29.4311 31.9502 29.5101 31.7862 29.6391 31.6666C29.768 31.5469 29.9375 31.4805 30.1134 31.4805C30.2893 31.4805 30.4587 31.5469 30.5876 31.6666C30.7166 31.7862 30.7956 31.9502 30.8088 32.1256V46.5546C30.8088 46.7395 30.7353 46.9169 30.6045 47.0477C30.4737 47.1785 30.2964 47.2519 30.1114 47.2519Z" fill="#005AFF"/>
<path d="M35.4944 35.9879C35.3703 35.9864 35.2488 35.9527 35.1418 35.8899L29.7745 32.7283C29.6674 32.6679 29.578 32.5803 29.5155 32.4744C29.4529 32.3685 29.4193 32.248 29.418 32.125V31.9918C29.4195 31.8694 29.4533 31.7495 29.5159 31.6443C29.5785 31.5391 29.6677 31.4522 29.7745 31.3924L42.7617 23.745C42.8717 23.6786 42.9977 23.6436 43.1261 23.6436C43.2545 23.6436 43.3805 23.6786 43.4904 23.745L48.8146 26.8321C48.9176 26.8947 49.0027 26.9827 49.0618 27.0877C49.1209 27.1926 49.1519 27.3111 49.1519 27.4316C49.1519 27.552 49.1209 27.6705 49.0618 27.7754C49.0027 27.8804 48.9176 27.9684 48.8146 28.031L35.8548 35.886C35.7462 35.9522 35.6215 35.9874 35.4944 35.9879ZM31.3729 32.0701L35.4865 34.4756L47.0869 27.4237L43.13 25.1318L31.3729 32.0701Z" fill="#FFA000"/>
</svg>
