      <svg width="30" height="30" viewBox="0 0 30 30" fill="none" xmlns="http://www.w3.org/2000/svg">
<path d="M28.9502 13.8307C28.6707 12.9303 27.8182 12.3292 26.8758 12.3669L26.6748 12.3752C26.0851 12.3992 25.5305 12.6423 25.1151 13.0577L22.0075 16.1327C21.9338 16.0202 21.8494 15.9133 21.7533 15.8135C21.3447 15.389 20.7724 15.1458 20.1832 15.1458H15.7999C14.9728 15.1458 14.1663 15.0385 13.4024 14.8272C11.4129 14.2765 9.51449 14.674 7.91237 15.9768C7.23654 16.5266 6.75074 17.1266 6.45273 17.5506C6.11525 17.3159 5.71373 17.1928 5.29728 17.1999C4.76908 17.209 4.27641 17.4232 3.91026 17.8038L1.07698 20.7449C0.867729 20.962 0.87202 21.3072 1.08694 21.5192L3.3654 23.7666C3.58187 23.98 3.93086 23.9778 4.14457 23.7611C4.35795 23.5445 4.35572 23.1958 4.13908 22.9821L2.24823 21.1172L4.70368 18.568C4.86521 18.4003 5.0827 18.3055 5.31565 18.3018C5.55082 18.2975 5.76901 18.385 5.93638 18.5472L10.3173 22.7986C10.4844 22.9608 10.5783 23.1782 10.5815 23.4109C10.5848 23.6439 10.4971 23.8638 10.3345 24.0306L7.92164 26.5063L7.30074 25.915C7.08033 25.705 6.73168 25.7136 6.52174 25.934C6.31214 26.1544 6.32073 26.5031 6.54114 26.7127L7.55617 27.6796C7.66295 27.7811 7.79959 27.8316 7.93606 27.8316C8.07957 27.8316 8.22273 27.7758 8.33071 27.6652L11.1236 24.7995C11.4919 24.4218 11.6905 23.9232 11.6833 23.3958C11.6798 23.1546 11.6331 22.9207 11.5476 22.7027L12.5314 22.5882C12.9879 22.5351 13.4522 22.508 13.9118 22.508H20.5813C20.6835 22.508 20.7868 22.5037 20.8886 22.4951L21.5277 22.4419C22.1755 22.3882 22.7999 22.1633 23.3336 21.7922C23.5955 21.6099 23.8331 21.3942 24.0398 21.151L28.5341 15.8635C29.0144 15.2986 29.1697 14.5388 28.9502 13.8307ZM27.6946 15.1499L23.2002 20.4374C23.0551 20.608 22.8883 20.7594 22.7043 20.8875C22.3295 21.1483 21.8909 21.306 21.4364 21.344L20.7969 21.3972C20.7257 21.4032 20.6529 21.4063 20.5813 21.4063H13.9118C13.4098 21.4063 12.9026 21.4356 12.4042 21.4935L10.8112 21.6789L7.28701 18.2807C7.52699 17.925 7.96799 17.3516 8.6076 16.8317C9.94004 15.7483 11.4543 15.4311 13.1086 15.8889C13.9681 16.1268 14.8736 16.2473 15.7999 16.2473H20.1832C20.4746 16.2473 20.7576 16.3678 20.9598 16.5776C21.1076 16.7311 21.2014 16.9192 21.24 17.1164C21.2393 17.1662 21.2455 17.2158 21.2584 17.2641C21.273 17.5224 21.1955 17.7858 21.0235 17.9998L21.0065 18.0211C20.8011 18.2772 20.4946 18.4243 20.1661 18.4243H16.35C16.0457 18.4243 15.7992 18.6708 15.7992 18.975C15.7992 19.2794 16.0457 19.5261 16.35 19.5261H20.1661C20.8306 19.5261 21.4501 19.2287 21.866 18.7101L21.883 18.689C22.2016 18.2922 22.3596 17.8118 22.3611 17.3326L25.8918 13.8387C26.1133 13.6175 26.4072 13.4886 26.7198 13.4759L26.921 13.4678C27.3652 13.4489 27.7664 13.733 27.8979 14.1572C28.0052 14.5029 27.9291 14.874 27.6946 15.1499Z" fill="#005AFF"/>
<path d="M5.30326 19.4639C4.48066 19.4639 3.81152 20.1332 3.81152 20.9556C3.81152 21.7784 4.48066 22.4477 5.30326 22.4477C6.12586 22.4477 6.79517 21.7784 6.79517 20.9556C6.79517 20.1332 6.12586 19.4639 5.30326 19.4639ZM5.30326 21.3458C5.08817 21.3458 4.91308 21.1709 4.91308 20.9556C4.91308 20.7407 5.08817 20.5658 5.30326 20.5658C5.51818 20.5658 5.69328 20.7407 5.69328 20.9556C5.69328 21.1709 5.51818 21.3458 5.30326 21.3458Z" fill="#005AFF"/>
<path d="M14.0096 18.5058L13.9812 18.5125C13.6851 18.582 13.5011 18.8787 13.571 19.1748C13.6304 19.4285 13.8568 19.5998 14.1067 19.5998C14.1483 19.5998 14.1908 19.5948 14.2331 19.5849L14.2616 19.5784C14.5577 19.5088 14.7413 19.2122 14.6718 18.9161C14.6023 18.62 14.3058 18.4366 14.0096 18.5058Z" fill="#005AFF"/>
<path d="M5.23228 24.335L5.20378 24.3417C4.90767 24.4114 4.72399 24.7076 4.79351 25.0038C4.85308 25.2576 5.07933 25.4288 5.32927 25.4288C5.37115 25.4288 5.41338 25.4242 5.45595 25.4142L5.48428 25.4077C5.78039 25.3382 5.96424 25.0415 5.89455 24.7454C5.82502 24.4491 5.52839 24.2656 5.23228 24.335Z" fill="#005AFF"/>
<path d="M17.0456 13.7228C20.2605 13.7228 22.876 11.1074 22.876 7.89249C22.876 4.67762 20.2605 2.06201 17.0456 2.06201C15.7269 2.06201 14.4831 2.49151 13.4485 3.30381C13.2121 3.4892 12.9884 3.69451 12.7835 3.91424C12.4769 4.24263 12.2082 4.60638 11.9852 4.99485C11.4814 5.87289 11.2153 6.87505 11.2153 7.89249C11.2153 11.1074 13.8308 13.7228 17.0456 13.7228ZM12.9409 5.54313C13.1218 5.22779 13.3396 4.93271 13.5887 4.66612C13.7551 4.48759 13.9369 4.32108 14.1286 4.17053C14.9677 3.51204 15.9764 3.16391 17.0456 3.16391C19.6528 3.16391 21.7742 5.28495 21.7742 7.89249C21.7742 10.4999 19.6528 12.6211 17.0456 12.6211C14.4383 12.6211 12.3169 10.4999 12.3169 7.89249C12.3169 7.06697 12.5327 6.25467 12.9409 5.54313Z" fill="#005AFF"/>
<path d="M17.5345 9.77807C17.3124 9.91008 17.0238 9.95694 16.8281 9.95694C16.4567 9.95694 16.131 9.51921 16.131 9.02036C16.131 8.71618 15.8843 8.4695 15.5802 8.4695C15.2758 8.4695 15.0293 8.71618 15.0293 9.02036C15.0293 9.97445 15.6105 10.7771 16.393 10.9981C16.4108 11.2863 16.6494 11.5148 16.9421 11.5148C17.2427 11.5148 17.4866 11.2739 17.4925 10.9746C18.2881 10.768 18.9748 10.1756 18.9748 9.14035C18.9748 7.89907 17.7072 7.22186 17.0563 7.22186C17.048 7.22186 16.2393 7.14994 16.2393 6.63272C16.2393 5.83844 17.048 5.81613 17.0563 5.81613C17.2094 5.81613 17.3957 5.90711 17.5424 6.05388C17.613 6.1246 17.6205 6.13198 17.6205 6.42896C17.6205 6.73314 17.8674 6.97862 18.1714 6.97862C18.4756 6.97862 18.7224 6.73108 18.7224 6.42673C18.7224 6.07465 18.7224 5.67571 18.3216 5.27471C18.0806 5.03404 17.7918 4.86272 17.4914 4.77723C17.4746 4.48798 17.2357 4.2583 16.9421 4.2583C16.6379 4.2583 16.3913 4.50515 16.3913 4.80933V4.84538C15.7894 5.06906 15.1376 5.60361 15.1376 6.63272C15.1376 7.89495 16.4496 8.3217 17.0523 8.32341C17.2178 8.3368 17.8729 8.62691 17.8729 9.14018C17.8729 9.4423 17.7687 9.63886 17.5345 9.77807Z" fill="#005AFF"/>
</svg>