<svg width="60" height="59" viewBox="0 0 60 59" fill="none" xmlns="http://www.w3.org/2000/svg">
<path d="M28.3485 46.2292C26.9226 46.2392 25.5387 45.7468 24.4395 44.8383C23.3404 43.9298 22.5964 42.6633 22.3379 41.2609C22.0794 39.8586 22.323 38.41 23.0259 37.1693C23.7288 35.9286 24.8462 34.9751 26.182 34.476C26.8731 34.2101 27.6081 34.0772 28.3485 34.0843C29.4223 34.0855 30.4766 34.3711 31.4042 34.912C32.3318 35.4528 33.0996 36.2297 33.6296 37.1636C34.1479 38.0728 34.4181 39.1023 34.4132 40.1489C34.4132 41.7588 33.7747 43.303 32.6378 44.4428C31.5009 45.5826 29.9584 46.2251 28.3485 46.2292ZM28.3485 35.5181C27.7829 35.5167 27.222 35.6217 26.6952 35.8276C25.9038 36.1301 25.2102 36.6434 24.6896 37.3119C24.169 37.9805 23.8413 38.7787 23.742 39.6202C23.6427 40.4617 23.7756 41.3143 24.1262 42.0856C24.4769 42.8569 25.032 43.5176 25.7313 43.996C26.4306 44.4744 27.2476 44.7523 28.0935 44.7995C28.9395 44.8468 29.7823 44.6616 30.5306 44.2641C31.2789 43.8666 31.9041 43.2719 32.3385 42.5444C32.7729 41.8169 32.9999 40.9844 32.9949 40.1371C32.9996 39.3383 32.7913 38.5526 32.3916 37.8609C31.9853 37.1467 31.3972 36.5528 30.6871 36.1392C29.9771 35.7257 29.1702 35.5074 28.3485 35.5064V35.5181Z" fill="#005AFF"/>
<path d="M33.2422 37.8295C33.0794 37.8306 32.9212 37.7759 32.7938 37.6747C32.6664 37.5734 32.5775 37.4316 32.5418 37.2728C32.5061 37.1141 32.5258 36.9479 32.5976 36.8018C32.6694 36.6558 32.789 36.5387 32.9366 36.47L42.8053 31.8236C42.8902 31.7837 42.9821 31.761 43.0758 31.7566C43.1695 31.7523 43.2631 31.7664 43.3513 31.7983C43.4396 31.8301 43.5207 31.879 43.59 31.9421C43.6593 32.0053 43.7155 32.0815 43.7554 32.1664C43.7952 32.2513 43.818 32.3432 43.8224 32.4369C43.8267 32.5306 43.8126 32.6242 43.7807 32.7124C43.7489 32.8007 43.7 32.8817 43.6368 32.9511C43.5737 33.0204 43.4975 33.0766 43.4126 33.1165L33.5438 37.7629C33.449 37.8058 33.3462 37.8285 33.2422 37.8295Z" fill="#005AFF"/>
<path d="M26.3386 35.3539C26.1978 35.3539 26.0602 35.3123 25.9431 35.2342C25.826 35.1561 25.7346 35.0451 25.6804 34.9151L25.2887 33.9553L17.3788 16.9484L12.9282 18.9974C12.7563 19.0764 12.56 19.0838 12.3825 19.018C12.2051 18.9523 12.0611 18.8187 11.9821 18.6468C11.9031 18.4748 11.8957 18.2785 11.9615 18.1011C12.0272 17.9237 12.1608 17.7796 12.3327 17.7006L17.4258 15.35C17.5973 15.2714 17.7929 15.264 17.9699 15.3293C18.1469 15.3947 18.2907 15.5275 18.3699 15.6987L26.5972 33.3755L26.9889 34.3588C27.0253 34.4457 27.044 34.5389 27.0439 34.633C27.0438 34.7272 27.025 34.8204 26.9885 34.9071C26.952 34.9939 26.8987 35.0726 26.8315 35.1386C26.7643 35.2045 26.6846 35.2564 26.5972 35.2912C26.5159 35.3287 26.428 35.35 26.3386 35.3539Z" fill="#005AFF"/>
<path d="M33.1286 34.5507C32.9676 34.5488 32.8119 34.4928 32.6866 34.3916C32.5613 34.2904 32.4738 34.15 32.438 33.993C32.4023 33.836 32.4204 33.6715 32.4896 33.5261C32.5587 33.3806 32.6748 33.2627 32.8191 33.1913L41.7515 28.921L36.3921 17.0855L24.7172 22.5703L28.7682 31.5184C28.8487 31.6909 28.8574 31.8883 28.7924 32.0672C28.7273 32.2461 28.5939 32.3919 28.4214 32.4724C28.249 32.5529 28.0515 32.5616 27.8726 32.4966C27.6937 32.4316 27.548 32.2981 27.4675 32.1257L23.1149 22.5116C23.0385 22.3404 23.0323 22.1461 23.0975 21.9703C23.1626 21.7946 23.2941 21.6513 23.4635 21.5713L36.4351 15.4871C36.5207 15.4471 36.6134 15.4244 36.7077 15.4205C36.8021 15.4166 36.8963 15.4315 36.9849 15.4643C37.0735 15.4971 37.1546 15.5472 37.2237 15.6116C37.2927 15.6761 37.3483 15.7536 37.3872 15.8397L43.3421 28.9915C43.4196 29.1615 43.4268 29.3552 43.3623 29.5305C43.2977 29.7059 43.1666 29.8486 42.9973 29.9278L33.4342 34.4763C33.3392 34.5237 33.2347 34.5491 33.1286 34.5507Z" fill="#005AFF"/>
<path d="M23.5296 20.5325C23.3925 20.5321 23.2583 20.4924 23.1431 20.4181C23.0278 20.3438 22.9362 20.238 22.8793 20.1133L20.4816 14.887C20.4426 14.802 20.4208 14.7101 20.4175 14.6167C20.4141 14.5232 20.4292 14.43 20.4621 14.3425C20.5356 14.1651 20.6765 14.0242 20.8538 13.9507L28.2074 10.5775C28.3774 10.5 28.5711 10.4928 28.7465 10.5573C28.9218 10.6219 29.0646 10.753 29.1437 10.9223L31.6354 16.1799C31.717 16.3508 31.7273 16.5471 31.6641 16.7256C31.6009 16.9042 31.4694 17.0503 31.2985 17.1319C31.1276 17.2134 30.9312 17.2238 30.7527 17.1606C30.5742 17.0974 30.428 16.9659 30.3465 16.7949L28.1408 12.1799L22.0801 14.9223L24.18 19.506C24.2583 19.678 24.2652 19.874 24.1991 20.0511C24.133 20.2281 23.9993 20.3717 23.8274 20.4502C23.735 20.4981 23.6335 20.5262 23.5296 20.5325Z" fill="#FFA000"/>
</svg>
