<svg width="20" height="20" viewBox="0 0 20 20" fill="white" xmlns="http://www.w3.org/2000/svg">
<path d="M5.58681 13.5812H6.22302H17.0704C17.3325 13.5812 17.5634 13.409 17.6383 13.1578L19.9754 5.31059C20.0287 5.1313 19.9943 4.93731 19.8825 4.78731C19.7707 4.63731 19.5946 4.54895 19.4075 4.54895H4.3277L3.53036 1.8716C3.45555 1.62043 3.22458 1.44824 2.96247 1.44824H0.59254C0.265313 1.4482 0 1.71348 0 2.04074C0 2.36797 0.265313 2.63328 0.59254 2.63328H2.52071L3.31426 5.29778C3.31669 5.30657 3.31923 5.31528 3.32204 5.32387L5.43009 12.4021C4.2268 12.483 3.27239 13.4872 3.27239 14.7106C3.27239 15.9868 4.31063 17.025 5.58677 17.025H6.17501C6.43208 17.9064 7.24677 18.5525 8.21005 18.5525C9.1733 18.5525 9.98803 17.9064 10.2451 17.025H13.3889C13.646 17.9064 14.4607 18.5525 15.424 18.5525C16.3872 18.5525 17.2019 17.9064 17.459 17.025H18.2224C18.5496 17.025 18.815 16.7597 18.815 16.4325C18.815 16.1053 18.5496 15.8399 18.2224 15.8399H17.459C17.2019 14.9585 16.3873 14.3125 15.424 14.3125C14.4607 14.3125 13.646 14.9585 13.3889 15.8399H10.2451C9.98803 14.9585 9.17334 14.3125 8.21005 14.3125C7.24677 14.3125 6.43204 14.9585 6.17501 15.8399H5.58677C4.96403 15.8399 4.45743 15.3333 4.45743 14.7106C4.45743 14.0878 4.96407 13.5812 5.58681 13.5812ZM14.2792 5.73395H18.6128L17.7972 8.47251H14.2792V5.73395ZM14.2791 9.65759H17.4442L16.6286 12.3962H14.2791V9.65759ZM9.89471 5.73395H13.0941V8.47251H9.89471V5.73395ZM9.89467 9.65759H13.0941V12.3962H9.89467V9.65759ZM8.7097 12.3962H6.66482L5.84923 9.65759H8.7097V12.3962ZM4.68071 5.73395H8.70967V8.47251H5.4963L4.68071 5.73395ZM15.424 15.4976C15.9395 15.4976 16.3589 15.9169 16.3589 16.4325C16.3589 16.948 15.9395 17.3673 15.424 17.3673C14.9085 17.3673 14.4891 16.948 14.4891 16.4325C14.4891 15.9169 14.9085 15.4976 15.424 15.4976ZM8.21009 15.4976C8.7256 15.4976 9.14498 15.9169 9.14498 16.4325C9.14498 16.948 8.7256 17.3673 8.21009 17.3673C7.69458 17.3673 7.27521 16.948 7.27521 16.4325C7.27521 15.9169 7.69458 15.4976 8.21009 15.4976Z" />
</svg>
