<svg width="30" height="30" viewBox="0 0 30 30" fill="white" xmlns="http://www.w3.org/2000/svg">
<path d="M8.38021 20.3723H9.33453H25.6056C25.9987 20.3723 26.3451 20.114 26.4574 19.7372L29.963 7.96638C30.0431 7.69743 29.9914 7.40646 29.8237 7.18145C29.656 6.95645 29.3919 6.82392 29.1112 6.82392H6.49156L5.29554 2.80789C5.18333 2.43113 4.83686 2.17285 4.4437 2.17285H0.88881C0.397969 2.17279 0 2.5707 0 3.0616C0 3.55244 0.397969 3.95041 0.88881 3.95041H3.78106L4.9714 7.94716C4.97503 7.96034 4.97884 7.97341 4.98306 7.9863L8.14513 18.6036C6.34021 18.725 4.90858 20.2312 4.90858 22.0664C4.90858 23.9807 6.46595 25.538 8.38015 25.538H9.26252C9.64812 26.8601 10.8702 27.8292 12.3151 27.8292C13.7599 27.8292 14.982 26.8601 15.3676 25.538H20.0834C20.469 26.8601 21.691 27.8292 23.136 27.8292C24.5808 27.8292 25.8029 26.8601 26.1885 25.538H27.3336C27.8245 25.538 28.2224 25.1401 28.2224 24.6492C28.2224 24.1584 27.8245 23.7604 27.3336 23.7604H26.1885C25.8029 22.4383 24.5809 21.4693 23.136 21.4693C21.691 21.4693 20.4689 22.4383 20.0834 23.7604H15.3676C14.982 22.4383 13.76 21.4693 12.3151 21.4693C10.8702 21.4693 9.64807 22.4383 9.26252 23.7604H8.38015C7.44605 23.7604 6.68615 23.0005 6.68615 22.0663C6.68615 21.1322 7.44611 20.3723 8.38021 20.3723ZM21.4188 8.60142H27.9192L26.6958 12.7093H21.4188V8.60142ZM21.4187 14.4869H26.1663L24.9429 18.5947H21.4187V14.4869ZM14.8421 8.60142H19.6412V12.7093H14.8421V8.60142ZM14.842 14.4869H19.6411V18.5947H14.842V14.4869ZM13.0646 18.5947H9.99723L8.77384 14.4869H13.0646V18.5947ZM7.02107 8.60142H13.0645V12.7093H8.24445L7.02107 8.60142ZM23.136 23.2468C23.9093 23.2468 24.5383 23.8759 24.5383 24.6492C24.5383 25.4224 23.9093 26.0515 23.136 26.0515C22.3628 26.0515 21.7337 25.4224 21.7337 24.6492C21.7337 23.8759 22.3628 23.2468 23.136 23.2468ZM12.3151 23.2468C13.0884 23.2468 13.7175 23.8759 13.7175 24.6492C13.7175 25.4224 13.0884 26.0515 12.3151 26.0515C11.5419 26.0515 10.9128 25.4224 10.9128 24.6492C10.9128 23.8759 11.5419 23.2468 12.3151 23.2468Z"/>
</svg>
