<svg width="20" height="21" viewBox="0 0 20 21" fill="none" xmlns="http://www.w3.org/2000/svg">
<g clip-path="url(#clip0)">
<path d="M14.2857 3.80176H2.14286C0.959388 3.80176 0 4.78411 0 5.9959V18.4293C0 19.6411 0.959388 20.6235 2.14286 20.6235H14.2857C15.4692 20.6235 16.4285 19.6411 16.4285 18.4293V5.9959C16.4285 4.78411 15.4692 3.80176 14.2857 3.80176ZM15 18.4294C15 18.8333 14.6802 19.1608 14.2857 19.1608H2.14286C1.74835 19.1608 1.42856 18.8333 1.42856 18.4294V5.9959C1.42856 5.59195 1.74835 5.2645 2.14286 5.2645H14.2857C14.6802 5.2645 15 5.59195 15 5.9959V18.4294Z" fill="#A9A9A9"/>
<path d="M17.8574 0.144531H5.00028C3.81681 0.144531 2.85742 1.12688 2.85742 2.33867C2.85742 2.74261 3.17722 3.07006 3.57172 3.07006C3.96622 3.07006 4.28598 2.74261 4.28598 2.33867C4.28598 1.93473 4.60577 1.60728 5.00028 1.60728H17.8574C18.2519 1.60728 18.5717 1.93473 18.5717 2.33867V15.5035C18.5717 15.9074 18.2519 16.2349 17.8574 16.2349C17.4629 16.2349 17.1431 16.5623 17.1431 16.9663C17.1431 17.3702 17.4629 17.6977 17.8574 17.6977C19.0409 17.6977 20.0003 16.7153 20.0003 15.5035V2.33867C20.0003 1.12688 19.0409 0.144531 17.8574 0.144531Z" fill="#A9A9A9"/>
</g>
<defs>
<clipPath id="clip0">
<rect width="20" height="20.4786" fill="white" transform="translate(0 0.144531)"/>
</clipPath>
</defs>
</svg>
