<svg width="60" height="59" viewBox="0 0 60 59" fill="none" xmlns="http://www.w3.org/2000/svg">
<path d="M34.6798 18.5702H32.1254V16.008C32.1254 15.8989 32.0821 15.7943 32.0049 15.7172C31.9278 15.64 31.8231 15.5967 31.714 15.5967C31.6049 15.5967 31.5003 15.64 31.4232 15.7172C31.346 15.7943 31.3027 15.8989 31.3027 16.008V18.5702H28.7326C28.6235 18.5702 28.5189 18.6136 28.4418 18.6907C28.3646 18.7679 28.3213 18.8725 28.3213 18.9816C28.3213 19.0907 28.3646 19.1953 28.4418 19.2725C28.5189 19.3496 28.6235 19.393 28.7326 19.393H31.2948V21.9395C31.2948 22.0496 31.3386 22.1553 31.4165 22.2331C31.4944 22.311 31.6 22.3548 31.7101 22.3548C31.8203 22.3548 31.9259 22.311 32.0038 22.2331C32.0816 22.1553 32.1254 22.0496 32.1254 21.9395V19.393H34.6876C34.7967 19.393 34.9013 19.3496 34.9785 19.2725C35.0556 19.1953 35.099 19.0907 35.099 18.9816C35.099 18.8725 35.0556 18.7679 34.9785 18.6907C34.9013 18.6136 34.7967 18.5702 34.6876 18.5702H34.6798Z" fill="#FFA000"/>
<path d="M34.0846 20.7953L32.2746 18.9814L34.0846 17.1714C34.162 17.094 34.2055 16.989 34.2055 16.8796C34.2055 16.7701 34.162 16.6651 34.0846 16.5877C34.0072 16.5103 33.9022 16.4668 33.7928 16.4668C33.6833 16.4668 33.5783 16.5103 33.5009 16.5877L31.7066 18.4134L29.8966 16.6034C29.8192 16.526 29.7142 16.4825 29.6047 16.4825C29.4952 16.4825 29.3902 16.526 29.3128 16.6034C29.2354 16.6808 29.1919 16.7858 29.1919 16.8952C29.1919 17.0047 29.2354 17.1097 29.3128 17.1871L31.1228 18.9971L29.3128 20.811C29.2724 20.8477 29.2402 20.8925 29.2181 20.9424C29.196 20.9923 29.1846 21.0463 29.1846 21.1009C29.1846 21.1555 29.196 21.2095 29.2181 21.2594C29.2402 21.3094 29.2724 21.3541 29.3128 21.3908C29.3906 21.4676 29.4954 21.5107 29.6047 21.5107C29.714 21.5107 29.8188 21.4676 29.8966 21.3908L31.7066 19.5808L33.5166 21.3908C33.5943 21.4676 33.6992 21.5107 33.8084 21.5107C33.9177 21.5107 34.0226 21.4676 34.1003 21.3908C34.1424 21.3529 34.1757 21.3064 34.198 21.2543C34.2204 21.2023 34.2312 21.1461 34.2297 21.0895C34.2282 21.0329 34.2145 20.9773 34.1894 20.9265C34.1644 20.8757 34.1286 20.831 34.0846 20.7953Z" fill="#FFA000"/>
<path d="M31.6471 38.4756C32.5005 38.4756 33.319 38.1368 33.9229 37.5337C34.5267 36.9306 34.8664 36.1125 34.8675 35.2591C34.8542 35.0817 34.7744 34.9158 34.644 34.7948C34.5135 34.6737 34.3422 34.6064 34.1642 34.6064C33.9863 34.6064 33.815 34.6737 33.6845 34.7948C33.5541 34.9158 33.4743 35.0817 33.461 35.2591C33.461 35.4968 33.4142 35.7322 33.3232 35.9518C33.2323 36.1714 33.099 36.3709 32.9309 36.539C32.7628 36.707 32.5633 36.8404 32.3437 36.9313C32.1241 37.0223 31.8887 37.0691 31.651 37.0691C31.4133 37.0691 31.178 37.0223 30.9584 36.9313C30.7388 36.8404 30.5392 36.707 30.3712 36.539C30.2031 36.3709 30.0698 36.1714 29.9788 35.9518C29.8878 35.7322 29.841 35.4968 29.841 35.2591C29.8278 35.0817 29.7479 34.9158 29.6175 34.7948C29.4871 34.6737 29.3157 34.6064 29.1378 34.6064C28.9599 34.6064 28.7885 34.6737 28.6581 34.7948C28.5277 34.9158 28.4478 35.0817 28.4346 35.2591C28.4356 36.1112 28.7743 36.9281 29.3764 37.531C29.9785 38.1338 30.795 38.4735 31.6471 38.4756Z" fill="#005AFF"/>
<path d="M36.8497 38.848C36.6814 38.7691 36.4886 38.7603 36.3137 38.8235C36.1389 38.8867 35.9963 39.0167 35.9173 39.185C35.3139 40.4582 33.5666 41.3476 31.6861 41.3476C29.6998 41.3476 27.9369 40.3995 27.3962 39.04C27.3261 38.867 27.1901 38.729 27.0182 38.6562C26.8462 38.5835 26.6525 38.582 26.4795 38.6522C26.3065 38.7223 26.1684 38.8583 26.0957 39.0302C26.0229 39.2021 26.0215 39.3959 26.0916 39.5689C26.8477 41.4768 29.1004 42.7619 31.6861 42.7619C34.1386 42.7619 36.3482 41.5865 37.1709 39.7922C37.2118 39.7091 37.236 39.6188 37.242 39.5264C37.248 39.434 37.2357 39.3413 37.2059 39.2536C37.176 39.1659 37.1292 39.085 37.0681 39.0154C37.007 38.9458 36.9328 38.8889 36.8497 38.848Z" fill="#005AFF"/>
<path d="M43.4277 27.1972V17.6027C43.4266 16.1791 42.861 14.8141 41.8547 13.8072C40.8485 12.8002 39.4839 12.2335 38.0604 12.2314H25.2338C23.8102 12.2335 22.4456 12.8002 21.4394 13.8072C20.4332 14.8141 19.8675 16.1791 19.8665 17.6027V27.2207C18.8388 27.4143 17.9096 27.9571 17.236 28.7571C16.5625 29.5572 16.1861 30.5653 16.1704 31.611C16.1548 32.6566 16.5008 33.6756 17.1501 34.4954C17.7993 35.3153 18.7118 35.8856 19.7333 36.11C20.6578 42.2099 25.6921 46.7427 31.6471 46.7427C37.602 46.7427 42.6167 42.2217 43.557 36.1335C44.6018 35.9295 45.5417 35.3649 46.2126 34.5383C46.8834 33.7118 47.2425 32.6757 47.2271 31.6113C47.2117 30.5469 46.8228 29.5217 46.1283 28.7148C45.4339 27.908 44.478 27.3708 43.4277 27.1972ZM41.9194 27.8162L41.8959 27.8475C41.8567 27.9102 41.8018 27.9807 41.7431 28.0591L41.6804 28.1374C41.5981 28.2354 41.508 28.3372 41.3944 28.4508C40.6153 29.1803 39.6954 29.7429 38.6911 30.1041C36.842 30.8367 34.4678 31.2128 31.6392 31.2168H31.5609C30.5938 31.2211 29.6272 31.1714 28.6657 31.0679C27.3138 30.9369 25.9841 30.6341 24.7088 30.1668C23.8496 29.8589 23.0464 29.413 22.3307 28.8465C22.1806 28.7233 22.0367 28.5925 21.8998 28.4548C21.7901 28.3451 21.7 28.2432 21.6216 28.1492C21.5981 28.1218 21.5785 28.0943 21.555 28.0708C21.5315 28.0473 21.461 27.9494 21.4257 27.8984L21.3826 27.8358L21.3043 27.7143V27.6869V25.5831H42.0682V27.6673L41.9194 27.8162ZM21.269 17.6027C21.27 16.5515 21.6881 15.5436 22.4314 14.8003C23.1747 14.057 24.1826 13.6389 25.2338 13.6379H38.0604C39.1116 13.6389 40.1194 14.057 40.8627 14.8003C41.6061 15.5436 42.0241 16.5515 42.0251 17.6027V24.1805H21.2612L21.269 17.6027ZM42.891 34.8054C42.7255 34.8153 42.5689 34.8832 42.4486 34.9971C42.3282 35.111 42.2518 35.2637 42.2328 35.4283C41.6099 41.0777 37.0575 45.3402 31.6549 45.3402C26.2524 45.3402 21.6921 41.0738 21.077 35.4205C21.0589 35.2596 20.9858 35.1098 20.8703 34.9964C20.7547 34.8829 20.6036 34.8127 20.4424 34.7976C19.6932 34.7204 18.9968 34.3761 18.4807 33.8276C17.9646 33.279 17.6633 32.563 17.6319 31.8105C17.6005 31.058 17.8411 30.3193 18.3097 29.7297C18.7784 29.1401 19.4436 28.739 20.1838 28.5997L20.2112 28.6389C20.2671 28.7229 20.3273 28.8039 20.3914 28.8818C20.4267 28.9288 20.458 28.9758 20.5011 29.0267C20.6108 29.1639 20.7401 29.3049 20.8929 29.4577C21.8411 30.3676 22.9742 31.0625 24.2151 31.4949C26.174 32.251 28.6618 32.635 31.5766 32.635H31.651C34.6676 32.635 37.2142 32.2197 39.224 31.4244C40.4065 30.9945 41.489 30.328 42.4052 29.4655C42.5658 29.301 42.699 29.1482 42.7969 29.0072L42.8244 28.9758C42.9301 28.8387 43.0202 28.7172 43.0908 28.584C43.865 28.6853 44.5737 29.0719 45.0778 29.6682C45.582 30.2645 45.8454 31.0275 45.8165 31.8079C45.7876 32.5882 45.4684 33.3296 44.9215 33.887C44.3746 34.4443 43.6393 34.7774 42.8596 34.8211L42.891 34.8054Z" fill="#005AFF"/>
</svg>
