<svg width="30" height="24" viewBox="0 0 30 24" fill="white" xmlns="http://www.w3.org/2000/svg">
<path d="M26.3466 15.0034L25.2359 9.0799H26.9923V7.32209H24.9063L24.5767 5.56416H17.6948V7.32197H19.5643L21.0826 18.4555H16.1203L14.4319 14.6405C15.2745 14.1998 15.8511 13.3177 15.8511 12.3028C15.8511 10.8489 14.6682 9.66601 13.2142 9.66601H11.1533V0.270508H0V11.4238H2.93982V14.9396H5.97328C4.83158 16.0572 4.12184 17.6143 4.12184 19.3343V20.2132H5.96807C6.37635 22.2168 8.15203 23.7291 10.2744 23.7291C12.3968 23.7291 14.1724 22.2168 14.5808 20.2132H21.299C21.7073 22.2168 23.483 23.7291 25.6053 23.7291C28.0286 23.7291 30.0001 21.7577 30.0001 19.3343C30 17.1638 28.4179 15.357 26.3466 15.0034ZM1.75781 9.66595V2.02832H9.39545V9.66595H1.75781ZM4.69764 13.1818V11.4238H13.2142C13.6989 11.4238 14.0932 11.8181 14.0932 12.3028C14.0932 12.7875 13.6989 13.1818 13.2142 13.1818H4.69764ZM10.2744 14.9396H12.642L14.198 18.4554H5.96789C6.37611 16.4518 8.15191 14.9396 10.2744 14.9396ZM10.2744 21.9713C9.12844 21.9713 8.15139 21.2363 7.78857 20.2132H12.7601C12.3973 21.2363 11.4203 21.9713 10.2744 21.9713ZM23.1179 7.32197L24.5695 15.0641C23.7952 15.2519 23.1007 15.6452 22.5467 16.183L21.3384 7.32203H23.1179V7.32197ZM25.6052 21.9713C24.1512 21.9713 22.9683 20.7884 22.9683 19.3343C22.9683 17.8803 24.1512 16.6974 25.6052 16.6974C27.0592 16.6974 28.2422 17.8803 28.2422 19.3343C28.2422 20.7884 27.0593 21.9713 25.6052 21.9713Z" />
</svg>
