<svg width="20" height="20" viewBox="0 0 20 20" fill="white" xmlns="http://www.w3.org/2000/svg">
<g clip-path="url(#clip0)">
<path d="M17.5644 12.0026L16.8239 8.05359H17.9949V6.88172H16.6042L16.3845 5.70976H11.7965V6.88164H13.0429L14.055 14.304H10.7468L9.62129 11.7607C10.183 11.4669 10.5674 10.8788 10.5674 10.2022C10.5674 9.23293 9.77879 8.44434 8.80949 8.44434H7.43555V2.18066H0V9.61617H1.95988V11.9601H3.98219C3.22105 12.7051 2.74789 13.7432 2.74789 14.8899V15.4758H3.97871C4.2509 16.8115 5.43469 17.8197 6.84961 17.8197C8.26453 17.8197 9.44828 16.8115 9.72051 15.4758H14.1993C14.4715 16.8115 15.6553 17.8197 17.0702 17.8197C18.6857 17.8197 20 16.5054 20 14.8899C20 13.4429 18.9453 12.2383 17.5644 12.0026ZM1.17188 8.4443V3.35254H6.26363V8.4443H1.17188ZM3.13176 10.7882V9.61617H8.80945C9.13258 9.61617 9.39547 9.87906 9.39547 10.2022C9.39547 10.5253 9.13258 10.7882 8.80945 10.7882H3.13176ZM6.84957 11.9601H8.42801L9.46531 14.3039H3.97859C4.25074 12.9682 5.43461 11.9601 6.84957 11.9601ZM6.84957 16.6479C6.08563 16.6479 5.43426 16.1579 5.19238 15.4758H8.50676C8.26488 16.1579 7.61352 16.6479 6.84957 16.6479ZM15.4119 6.88164L16.3797 12.043C15.8635 12.1683 15.4005 12.4304 15.0311 12.789L14.2256 6.88168H15.4119V6.88164ZM17.0702 16.6479C16.1008 16.6479 15.3122 15.8593 15.3122 14.8899C15.3122 13.9205 16.1008 13.132 17.0702 13.132C18.0395 13.132 18.8281 13.9205 18.8281 14.8899C18.8281 15.8593 18.0395 16.6479 17.0702 16.6479Z" />
</g>
<defs>
<clipPath id="clip0">
<rect width="20" height="20" />
</clipPath>
</defs>
</svg>
