<svg width="21" height="23" viewBox="0 0 21 23" fill="none" xmlns="http://www.w3.org/2000/svg">
<path d="M12.699 4.23608H11.0541V2.58615C11.0541 2.51593 11.0262 2.4485 10.9766 2.39885C10.9269 2.34921 10.8595 2.32129 10.7893 2.32129C10.719 2.32129 10.6516 2.34921 10.602 2.39885C10.5522 2.4485 10.5244 2.51593 10.5244 2.58615V4.23608H8.86935C8.79913 4.23608 8.73171 4.26399 8.68206 4.31374C8.63241 4.36339 8.60449 4.43072 8.60449 4.50104C8.60449 4.57126 8.63241 4.63868 8.68206 4.68833C8.73171 4.73798 8.79913 4.7659 8.86935 4.7659H10.5193V6.40578C10.5193 6.47668 10.5475 6.54468 10.5976 6.59491C10.6478 6.64504 10.7159 6.67325 10.7868 6.67325C10.8577 6.67325 10.9257 6.64504 10.9758 6.59491C11.026 6.54468 11.0541 6.47668 11.0541 6.40578V4.7659H12.7041C12.7744 4.7659 12.8418 4.73798 12.8914 4.68833C12.9411 4.63868 12.969 4.57126 12.969 4.50104C12.969 4.43072 12.9411 4.36339 12.8914 4.31374C12.8418 4.26399 12.7744 4.23608 12.7041 4.23608H12.699Z" fill="white"/>
<path d="M12.3156 5.66926L11.15 4.50124L12.3156 3.33564C12.3654 3.28579 12.3935 3.21818 12.3935 3.14766C12.3935 3.07715 12.3654 3.00953 12.3156 2.95969C12.2657 2.90985 12.1981 2.88184 12.1276 2.88184C12.0571 2.88184 11.9895 2.90985 11.9397 2.95969L10.7842 4.13534L9.61859 2.96983C9.56875 2.91999 9.50113 2.89198 9.43062 2.89198C9.3602 2.89198 9.29259 2.91999 9.24274 2.96983C9.1929 3.01968 9.16489 3.08729 9.16489 3.15781C9.16489 3.22822 9.1929 3.29584 9.24274 3.34568L10.4083 4.51129L9.24274 5.6794C9.21666 5.70307 9.1959 5.73185 9.1817 5.76402C9.1675 5.79618 9.16016 5.83096 9.16016 5.86612C9.16016 5.90118 9.1675 5.93596 9.1817 5.96812C9.1959 6.00029 9.21666 6.02907 9.24274 6.05274C9.29278 6.10219 9.3603 6.12992 9.43062 6.12992C9.50104 6.12992 9.56856 6.10219 9.61859 6.05274L10.7842 4.88723L11.9497 6.05274C11.9998 6.10219 12.0674 6.12992 12.1377 6.12992C12.2081 6.12992 12.2756 6.10219 12.3256 6.05274C12.3527 6.0284 12.3742 5.99836 12.3886 5.96484C12.403 5.93132 12.41 5.89519 12.409 5.85868C12.408 5.82226 12.3992 5.78643 12.383 5.75378C12.3669 5.72103 12.3439 5.69225 12.3156 5.66926Z" fill="white"/>
<path d="M10.7464 17.055C11.296 17.055 11.8231 16.8369 12.2119 16.4485C12.6008 16.0601 12.8196 15.5333 12.8203 14.9838C12.8117 14.8695 12.7603 14.7627 12.6763 14.6847C12.5923 14.6068 12.482 14.5635 12.3673 14.5635C12.2528 14.5635 12.1425 14.6068 12.0584 14.6847C11.9745 14.7627 11.9231 14.8695 11.9145 14.9838C11.9145 15.1369 11.8844 15.2884 11.8258 15.4298C11.7672 15.5712 11.6813 15.6997 11.5731 15.8079C11.4649 15.9162 11.3364 16.0021 11.195 16.0606C11.0536 16.1191 10.902 16.1494 10.749 16.1494C10.5959 16.1494 10.4443 16.1191 10.3029 16.0606C10.1615 16.0021 10.033 15.9162 9.92477 15.8079C9.81658 15.6997 9.73071 15.5712 9.67208 15.4298C9.61354 15.2884 9.5834 15.1369 9.5834 14.9838C9.5749 14.8695 9.52342 14.7627 9.43948 14.6847C9.35544 14.6068 9.24513 14.5635 9.13057 14.5635C9.01601 14.5635 8.9056 14.6068 8.82166 14.6847C8.73762 14.7627 8.68623 14.8695 8.67773 14.9838C8.67831 15.5324 8.89642 16.0586 9.28415 16.4468C9.67198 16.835 10.1977 17.0537 10.7464 17.055Z" fill="white"/>
<path d="M14.0978 17.2941C13.9894 17.2433 13.8652 17.2376 13.7526 17.2783C13.64 17.319 13.5481 17.4027 13.4973 17.5111C13.1088 18.331 11.9836 18.9037 10.7726 18.9037C9.49349 18.9037 8.35821 18.2931 8.01009 17.4177C7.96488 17.3063 7.87727 17.2175 7.76657 17.1706C7.65588 17.1238 7.53108 17.1228 7.4197 17.168C7.30833 17.2131 7.21937 17.3007 7.17252 17.4114C7.12567 17.5221 7.1248 17.6469 7.16991 17.7583C7.65684 18.987 9.1075 19.8145 10.7726 19.8145C12.3519 19.8145 13.7748 19.0576 14.3047 17.9021C14.3309 17.8486 14.3465 17.7904 14.3503 17.7309C14.3542 17.6714 14.3463 17.6117 14.3271 17.5552C14.3079 17.4988 14.2777 17.4467 14.2384 17.4018C14.1991 17.357 14.1513 17.3204 14.0978 17.2941Z" fill="white"/>
<path d="M18.3332 9.79161V3.61315C18.3326 2.69647 17.9683 1.81744 17.3203 1.169C16.6724 0.520553 15.7936 0.15563 14.8769 0.154297H6.61702C5.70034 0.15563 4.82162 0.520553 4.17367 1.169C3.52571 1.81744 3.16136 2.69647 3.16068 3.61315V9.80677C2.49892 9.93148 1.90051 10.2811 1.46681 10.7962C1.0331 11.3114 0.790741 11.9606 0.780599 12.634C0.770553 13.3074 0.993396 13.9635 1.41146 14.4914C1.82952 15.0194 2.4172 15.3866 3.07491 15.5311C3.67031 19.4593 6.91221 22.3782 10.747 22.3782C14.5817 22.3782 17.811 19.4669 18.4165 15.5463C19.0894 15.4149 19.6946 15.0514 20.1266 14.5191C20.5586 13.9868 20.7898 13.3196 20.78 12.6342C20.77 11.9488 20.5196 11.2885 20.0724 10.769C19.6252 10.2494 19.0096 9.90346 18.3332 9.79161ZM17.362 10.1903L17.3468 10.2104C17.3216 10.2508 17.2863 10.2962 17.2484 10.3466L17.208 10.3972C17.1551 10.4602 17.097 10.5258 17.0239 10.5989C16.5222 11.0687 15.9298 11.431 15.2831 11.6636C14.0923 12.1354 12.5635 12.3776 10.742 12.3801H10.6915C10.0687 12.3829 9.44627 12.351 8.8271 12.2842C7.95649 12.1999 7.10028 12.0049 6.27894 11.704C5.72574 11.5057 5.20848 11.2185 4.74763 10.8538C4.65094 10.7745 4.55831 10.6902 4.47012 10.6015C4.39941 10.5308 4.34145 10.4653 4.29093 10.4047C4.27586 10.387 4.26321 10.3694 4.24805 10.3543C4.23298 10.3391 4.18748 10.276 4.16478 10.2433L4.13706 10.2029L4.08664 10.1247V10.107V8.75226H17.4578V10.0944L17.362 10.1903ZM4.06394 3.61315C4.06461 2.93621 4.33382 2.2872 4.81245 1.80854C5.29107 1.32988 5.94009 1.06067 6.61702 1.06H14.8769C15.5538 1.06067 16.2029 1.32988 16.6816 1.80854C17.1602 2.2872 17.4294 2.93621 17.4301 3.61315V7.849H4.05882L4.06394 3.61315ZM17.9876 14.6911C17.8811 14.6974 17.7802 14.7412 17.7028 14.8145C17.6252 14.8879 17.576 14.9862 17.5638 15.0922C17.1626 18.7302 14.2311 21.4751 10.752 21.4751C7.27299 21.4751 4.33633 18.7276 3.9403 15.0872C3.92861 14.9836 3.88157 14.8871 3.80709 14.814C3.73272 14.741 3.63544 14.6958 3.53161 14.686C3.04912 14.6364 2.60073 14.4146 2.26834 14.0614C1.93596 13.7081 1.74191 13.2471 1.72172 12.7625C1.70153 12.2779 1.85647 11.8022 2.15823 11.4225C2.45999 11.0428 2.88838 10.7845 3.36508 10.6949L3.38275 10.7201C3.41869 10.7742 3.45742 10.8263 3.49876 10.8765C3.52146 10.9068 3.54165 10.937 3.56937 10.9699C3.64008 11.0582 3.72335 11.149 3.82168 11.2474C4.43225 11.8333 5.16202 12.2807 5.96115 12.5592C7.22257 13.0462 8.82459 13.2934 10.7016 13.2934H10.7495C12.6921 13.2934 14.332 13.026 15.6262 12.5138C16.3877 12.237 17.0848 11.8078 17.6748 11.2524C17.7782 11.1464 17.864 11.048 17.9271 10.9572L17.9447 10.937C18.0128 10.8487 18.0709 10.7705 18.1163 10.6847C18.6149 10.7499 19.0712 10.9989 19.3959 11.3829C19.7205 11.7669 19.8901 12.2582 19.8716 12.7607C19.853 13.2633 19.6474 13.7408 19.2952 14.0996C18.943 14.4586 18.4695 14.6731 17.9674 14.7011L17.9876 14.6911Z" fill="white"/>
</svg>
