<svg width="24" height="24" viewBox="0 0 24 24" fill="none" xmlns="http://www.w3.org/2000/svg">
<path d="M12 0C5.373 0 0 5.373 0 12C0 18.627 5.373 24 12 24C18.627 24 24 18.627 24 12C24 5.373 18.627 0 12 0ZM12.75 17.19V18C12.75 18.414 12.414 18.75 12 18.75C11.586 18.75 11.25 18.414 11.25 18V17.187C10.482 17.061 9.7785 16.7475 9.252 16.281C8.9415 16.005 8.9145 15.5325 9.189 15.222C9.4635 14.9115 9.9375 14.886 10.248 15.159C10.671 15.534 11.31 15.75 12 15.75C13.2195 15.75 14.25 15.063 14.25 14.25C14.25 13.437 13.2195 12.75 12 12.75C9.933 12.75 8.25 11.4045 8.25 9.75C8.25 8.301 9.54 7.089 11.25 6.81V6C11.25 5.586 11.586 5.25 12 5.25C12.414 5.25 12.75 5.586 12.75 6V6.813C13.518 6.939 14.2215 7.2525 14.748 7.719C15.057 7.995 15.087 8.469 14.811 8.778C14.535 9.087 14.0625 9.114 13.752 8.841C13.329 8.466 12.69 8.25 12 8.25C10.7805 8.25 9.75 8.937 9.75 9.75C9.75 10.563 10.7805 11.25 12 11.25C14.0685 11.25 15.75 12.5955 15.75 14.25C15.75 15.699 14.46 16.911 12.75 17.19Z" fill="#005FB5"/>
</svg>
