<svg width="21" height="23" viewBox="0 0 21 23" fill="none" xmlns="http://www.w3.org/2000/svg">
<path d="M12.1417 22.0252H1.05044C0.934496 22.0252 0.823303 21.9791 0.741321 21.8972C0.659338 21.8152 0.613281 21.704 0.613281 21.588V2.9977C0.613281 2.88176 0.659338 2.77057 0.741321 2.68859C0.823303 2.6066 0.934496 2.56055 1.05044 2.56055H16.2559C16.3717 2.5612 16.4825 2.60747 16.5643 2.68931C16.6462 2.77115 16.6924 2.88196 16.6931 2.9977V11.466C16.6931 11.582 16.647 11.6932 16.5651 11.7751C16.4831 11.8571 16.3719 11.9032 16.2559 11.9032C16.14 11.9032 16.0288 11.8571 15.9468 11.7751C15.8648 11.6932 15.8188 11.582 15.8188 11.466V3.43486H1.48509V21.1509H12.1417C12.2576 21.1509 12.3688 21.1969 12.4508 21.2789C12.5328 21.3609 12.5788 21.4721 12.5788 21.588C12.5788 21.704 12.5328 21.8152 12.4508 21.8972C12.3688 21.9791 12.2576 22.0252 12.1417 22.0252V22.0252Z" fill="white"/>
<path d="M15.8986 21.8456C14.6696 21.8173 13.5004 21.3092 12.6411 20.4299C11.7819 19.5506 11.3008 18.37 11.3008 17.1406C11.3008 15.9112 11.7819 14.7306 12.6411 13.8513C13.5004 12.972 14.6696 12.4639 15.8986 12.4355C16.0236 12.4355 16.1485 12.4355 16.2684 12.4505C17.4502 12.5411 18.5544 13.0745 19.3599 13.944C20.1654 14.8136 20.6129 15.9553 20.6129 17.1406C20.6129 18.3259 20.1654 19.4676 19.3599 20.3371C18.5544 21.2067 17.4502 21.7401 16.2684 21.8306C16.146 21.8406 16.0236 21.8456 15.8986 21.8456ZM15.8986 13.3099C14.8996 13.3354 13.9501 13.7502 13.2525 14.4658C12.5549 15.1814 12.1645 16.1412 12.1645 17.1406C12.1645 18.1399 12.5549 19.0998 13.2525 19.8154C13.9501 20.531 14.8996 20.9458 15.8986 20.9713C15.9986 20.9713 16.0985 20.9713 16.1984 20.9713C17.1605 20.8974 18.0592 20.4631 18.7148 19.7552C19.3704 19.0473 19.7347 18.118 19.7347 17.1531C19.7347 16.1882 19.3704 15.2589 18.7148 14.551C18.0592 13.843 17.1605 13.4087 16.1984 13.3348C16.0985 13.3124 16.0061 13.3099 15.8986 13.3099Z" fill="white"/>
<path d="M15.419 18.9258C15.3612 18.9262 15.3038 18.9151 15.2502 18.8932C15.1966 18.8714 15.1479 18.8391 15.1068 18.7984L13.4856 17.1572C13.4041 17.0747 13.3587 16.9632 13.3594 16.8473C13.3601 16.7313 13.4068 16.6204 13.4893 16.5389C13.5718 16.4574 13.6833 16.4121 13.7992 16.4128C13.9152 16.4135 14.0261 16.4602 14.1076 16.5427L15.419 17.8691L17.7897 15.4835C17.8728 15.4096 17.9809 15.3702 18.0921 15.3732C18.2032 15.3762 18.3091 15.4215 18.388 15.4998C18.467 15.5782 18.5131 15.6836 18.517 15.7947C18.521 15.9059 18.4824 16.0143 18.4092 16.098L15.7288 18.7984C15.6464 18.8801 15.535 18.9259 15.419 18.9258Z" fill="white"/>
<path d="M12.3738 4.73914H5.03463C4.97461 4.74368 4.9143 4.73579 4.85748 4.71594C4.80065 4.6961 4.74854 4.66473 4.7044 4.62381C4.66026 4.58289 4.62504 4.53329 4.60096 4.47813C4.57688 4.42296 4.56445 4.36342 4.56445 4.30323C4.56445 4.24304 4.57688 4.1835 4.60096 4.12833C4.62504 4.07317 4.66026 4.02357 4.7044 3.98265C4.74854 3.94173 4.80065 3.91036 4.85748 3.89052C4.9143 3.87067 4.97461 3.86278 5.03463 3.86733H11.9367V2.14119H10.1881C10.1063 2.13991 10.0265 2.11585 9.95769 2.07172C9.88885 2.02759 9.83368 1.96514 9.79838 1.89138L9.37371 1.04455H8.01228L7.53766 1.91137C7.50065 1.98063 7.44558 2.03857 7.37828 2.07903C7.31098 2.1195 7.23398 2.14097 7.15546 2.14119H5.12706C5.01112 2.14119 4.89992 2.09513 4.81794 2.01315C4.73596 1.93116 4.6899 1.81997 4.6899 1.70403C4.6899 1.58809 4.73596 1.4769 4.81794 1.39492C4.89992 1.31293 5.01112 1.26688 5.12706 1.26688H6.89566L7.3603 0.407553C7.39772 0.338098 7.45323 0.280064 7.52096 0.239603C7.58869 0.199142 7.6661 0.177764 7.745 0.177734H9.63351C9.71569 0.178551 9.79601 0.20239 9.86533 0.246545C9.93465 0.2907 9.99021 0.353402 10.0257 0.427537L10.4479 1.27437H12.3738C12.4898 1.27437 12.601 1.32043 12.683 1.40241C12.7649 1.48439 12.811 1.59558 12.811 1.71153V4.30948C12.809 4.42411 12.7621 4.53339 12.6803 4.61376C12.5986 4.69413 12.4885 4.73915 12.3738 4.73914V4.73914Z" fill="white"/>
<path d="M13.1984 8.28837H4.10805C3.99211 8.28837 3.88092 8.24232 3.79894 8.16033C3.71696 8.07835 3.6709 7.96716 3.6709 7.85122C3.6709 7.73528 3.71696 7.62409 3.79894 7.5421C3.88092 7.46012 3.99211 7.41406 4.10805 7.41406H13.1984C13.3143 7.41406 13.4255 7.46012 13.5075 7.5421C13.5895 7.62409 13.6355 7.73528 13.6355 7.85122C13.6355 7.96716 13.5895 8.07835 13.5075 8.16033C13.4255 8.24232 13.3143 8.28837 13.1984 8.28837V8.28837Z" fill="white"/>
<path d="M13.1984 10.2991H4.10805C3.99211 10.2991 3.88092 10.2531 3.79894 10.1711C3.71696 10.0891 3.6709 9.9779 3.6709 9.86196C3.6709 9.74602 3.71696 9.63483 3.79894 9.55284C3.88092 9.47086 3.99211 9.4248 4.10805 9.4248H13.1984C13.3143 9.4248 13.4255 9.47086 13.5075 9.55284C13.5895 9.63483 13.6355 9.74602 13.6355 9.86196C13.6355 9.9779 13.5895 10.0891 13.5075 10.1711C13.4255 10.2531 13.3143 10.2991 13.1984 10.2991V10.2991Z" fill="white"/>
<path d="M13.1984 12.3079H4.10805C3.99211 12.3079 3.88092 12.2618 3.79894 12.1799C3.71696 12.0979 3.6709 11.9867 3.6709 11.8707C3.6709 11.7548 3.71696 11.6436 3.79894 11.5616C3.88092 11.4796 3.99211 11.4336 4.10805 11.4336H13.1984C13.3143 11.4336 13.4255 11.4796 13.5075 11.5616C13.5895 11.6436 13.6355 11.7548 13.6355 11.8707C13.6355 11.9867 13.5895 12.0979 13.5075 12.1799C13.4255 12.2618 13.3143 12.3079 13.1984 12.3079V12.3079Z" fill="white"/>
</svg>
