<svg width="19" height="19" viewBox="0 0 19 19" fill="white" xmlns="http://www.w3.org/2000/svg">
<path d="M18.5101 5.97932C17.859 5.3282 16.7996 5.32824 16.1483 5.97947C15.948 6.17997 14.669 7.45999 14.4736 7.65555V3.24432C14.4736 2.79827 14.2999 2.37893 13.9845 2.06354L12.4101 0.489102C12.0947 0.173672 11.6754 0 11.2293 0H1.6709C0.750104 0 0.000976562 0.749127 0.000976562 1.66992V17.3301C0.000976562 18.2509 0.750104 19 1.6709 19H12.8037C13.7245 19 14.4736 18.2509 14.4736 17.3301V12.3808L18.5101 8.34096C19.1627 7.68836 19.1629 6.632 18.5101 5.97932ZM11.1338 1.11328C11.239 1.11328 11.4416 1.09506 11.6229 1.2763L13.1973 2.85074C13.374 3.02742 13.3604 3.22102 13.3604 3.33984H11.1338V1.11328ZM13.3604 17.3301C13.3604 17.637 13.1107 17.8867 12.8037 17.8867H1.6709C1.36397 17.8867 1.11426 17.637 1.11426 17.3301V1.66992C1.11426 1.36299 1.36397 1.11328 1.6709 1.11328H10.0205V3.89648C10.0205 4.2039 10.2697 4.45312 10.5771 4.45312H13.3604V8.7698C13.3604 8.7698 11.7181 10.4134 11.718 10.4135L10.9312 11.2004C10.8701 11.2614 10.824 11.3359 10.7967 11.4179L10.0095 13.7796C9.9428 13.9796 9.99487 14.2001 10.144 14.3492C10.2933 14.4985 10.5139 14.5503 10.7136 14.4837L13.0752 13.6965C13.1572 13.6692 13.2317 13.6231 13.2928 13.562L13.3604 13.4945V17.3301ZM12.112 11.594L12.8992 12.3812L12.5985 12.6819L11.4177 13.0755L11.8113 11.8946L12.112 11.594ZM13.6862 11.5938L12.899 10.8066C13.3182 10.3871 15.18 8.52373 15.5748 8.12855L16.362 8.91575L13.6862 11.5938ZM17.7227 7.55391L17.1489 8.12821L16.3617 7.34101L16.9357 6.76652C17.1529 6.54947 17.506 6.54951 17.723 6.76652C17.9399 6.98361 17.9411 7.33552 17.7227 7.55391Z"/>
<path d="M10.5771 5.56641H2.78418C2.47677 5.56641 2.22754 5.81563 2.22754 6.12305C2.22754 6.43046 2.47677 6.67969 2.78418 6.67969H10.5771C10.8846 6.67969 11.1338 6.43046 11.1338 6.12305C11.1338 5.81563 10.8846 5.56641 10.5771 5.56641Z"/>
<path d="M8.35058 7.79297H2.78418C2.47677 7.79297 2.22754 8.0422 2.22754 8.34961C2.22754 8.65702 2.47677 8.90625 2.78418 8.90625H8.35058C8.658 8.90625 8.90722 8.65702 8.90722 8.34961C8.90722 8.0422 8.658 7.79297 8.35058 7.79297Z"/>
<path d="M8.35058 10.0195H2.78418C2.47677 10.0195 2.22754 10.2688 2.22754 10.5762C2.22754 10.8836 2.47677 11.1328 2.78418 11.1328H8.35058C8.658 11.1328 8.90722 10.8836 8.90722 10.5762C8.90722 10.2688 8.658 10.0195 8.35058 10.0195Z"/>
<path d="M8.35058 12.2461H2.78418C2.47677 12.2461 2.22754 12.4953 2.22754 12.8027C2.22754 13.1101 2.47677 13.3594 2.78418 13.3594H8.35058C8.658 13.3594 8.90722 13.1101 8.90722 12.8027C8.90722 12.4953 8.658 12.2461 8.35058 12.2461Z"/>
<path d="M10.5771 15.6602H7.2373C6.92989 15.6602 6.68066 15.9094 6.68066 16.2168C6.68066 16.5242 6.92989 16.7734 7.2373 16.7734H10.5771C10.8846 16.7734 11.1338 16.5242 11.1338 16.2168C11.1338 15.9094 10.8846 15.6602 10.5771 15.6602Z"/>
</svg>
