<svg width="30" height="30" viewBox="0 0 30 30" fill="white" xmlns="http://www.w3.org/2000/svg">
<path d="M29.226 9.44104C28.1979 8.41295 26.5251 8.41301 25.4968 9.44127C25.1805 9.75785 23.161 11.7789 22.8525 12.0877V5.12262C22.8525 4.41832 22.5783 3.75621 22.0802 3.25822L19.5944 0.772266C19.0964 0.274219 18.4342 0 17.7299 0H2.6377C1.18381 0 0.000976562 1.18283 0.000976562 2.63672V27.3633C0.000976562 28.8172 1.18381 30 2.6377 30H20.2158C21.6697 30 22.8525 28.8172 22.8525 27.3633V19.5487L29.2259 13.1699C30.2564 12.1395 30.2566 10.4716 29.226 9.44104ZM17.5792 1.75781C17.7452 1.75781 18.0652 1.72904 18.3514 2.01521L20.8373 4.50117C21.1162 4.78014 21.0948 5.08582 21.0948 5.27344H17.5792V1.75781ZM21.0947 27.3633C21.0947 27.8479 20.7005 28.2422 20.2158 28.2422H2.6377C2.15307 28.2422 1.75879 27.8479 1.75879 27.3633V2.63672C1.75879 2.15209 2.15307 1.75781 2.6377 1.75781H15.8213V6.15234C15.8213 6.63773 16.2148 7.03125 16.7002 7.03125H21.0947V13.8471C21.0947 13.8471 18.5017 16.4423 18.5016 16.4423L17.2592 17.6848C17.1628 17.7812 17.09 17.8989 17.0469 18.0283L15.8039 21.7572C15.6986 22.073 15.7808 22.4212 16.0162 22.6566C16.252 22.8923 16.6003 22.9741 16.9156 22.869L20.6446 21.626C20.774 21.5829 20.8916 21.5102 20.9881 21.4137L21.0947 21.307V27.3633ZM19.1236 18.3063L20.3666 19.5492L19.8918 20.024L18.0274 20.6454L18.6488 18.781L19.1236 18.3063ZM21.6093 18.306L20.3664 17.063C21.0282 16.4006 23.9678 13.4585 24.5913 12.8346L25.8342 14.0775L21.6093 18.306ZM27.9827 11.9272L27.0767 12.834L25.8337 11.5911L26.7401 10.684C27.083 10.3413 27.6404 10.3413 27.9831 10.684C28.3257 11.0268 28.3275 11.5824 27.9827 11.9272Z" />
<path d="M16.7002 8.78906H4.39551C3.91012 8.78906 3.5166 9.18258 3.5166 9.66797C3.5166 10.1534 3.91012 10.5469 4.39551 10.5469H16.7002C17.1856 10.5469 17.5791 10.1534 17.5791 9.66797C17.5791 9.18258 17.1856 8.78906 16.7002 8.78906Z" />
<path d="M13.1846 12.3047H4.39551C3.91012 12.3047 3.5166 12.6982 3.5166 13.1836C3.5166 13.669 3.91012 14.0625 4.39551 14.0625H13.1846C13.67 14.0625 14.0635 13.669 14.0635 13.1836C14.0635 12.6982 13.67 12.3047 13.1846 12.3047Z" />
<path d="M13.1846 15.8203H4.39551C3.91012 15.8203 3.5166 16.2138 3.5166 16.6992C3.5166 17.1846 3.91012 17.5781 4.39551 17.5781H13.1846C13.67 17.5781 14.0635 17.1846 14.0635 16.6992C14.0635 16.2138 13.67 15.8203 13.1846 15.8203Z" />
<path d="M13.1846 19.3359H4.39551C3.91012 19.3359 3.5166 19.7295 3.5166 20.2148C3.5166 20.7002 3.91012 21.0938 4.39551 21.0938H13.1846C13.67 21.0938 14.0635 20.7002 14.0635 20.2148C14.0635 19.7295 13.67 19.3359 13.1846 19.3359Z" />
<path d="M16.7002 24.7266H11.4268C10.9414 24.7266 10.5479 25.1201 10.5479 25.6055C10.5479 26.0909 10.9414 26.4844 11.4268 26.4844H16.7002C17.1856 26.4844 17.5791 26.0909 17.5791 25.6055C17.5791 25.1201 17.1856 24.7266 16.7002 24.7266Z" />
</svg>
