<svg width="60" height="59" viewBox="0 0 60 59" fill="none" xmlns="http://www.w3.org/2000/svg">
<path d="M35.0754 44.7682H17.6807C17.4989 44.7682 17.3245 44.6959 17.1959 44.5673C17.0673 44.4388 16.9951 44.2644 16.9951 44.0825V14.9268C16.9951 14.745 17.0673 14.5706 17.1959 14.442C17.3245 14.3134 17.4989 14.2412 17.6807 14.2412H41.5279C41.7094 14.2422 41.8832 14.3148 42.0116 14.4432C42.1399 14.5715 42.2125 14.7453 42.2135 14.9268V28.2079C42.2135 28.3897 42.1413 28.5641 42.0127 28.6927C41.8841 28.8213 41.7098 28.8935 41.5279 28.8935C41.3461 28.8935 41.1717 28.8213 41.0431 28.6927C40.9146 28.5641 40.8423 28.3897 40.8423 28.2079V15.6124H18.3624V43.3969H35.0754C35.2573 43.3969 35.4316 43.4692 35.5602 43.5978C35.6888 43.7263 35.761 43.9007 35.761 44.0825C35.761 44.2644 35.6888 44.4388 35.5602 44.5673C35.4316 44.6959 35.2573 44.7682 35.0754 44.7682Z" fill="#005AFF"/>
<path d="M40.9678 44.4856C39.0402 44.4412 37.2065 43.6443 35.8589 42.2653C34.5113 40.8863 33.7568 39.0347 33.7568 37.1066C33.7568 35.1785 34.5113 33.3269 35.8589 31.9479C37.2065 30.5689 39.0402 29.772 40.9678 29.7275C41.1637 29.7275 41.3596 29.7275 41.5476 29.751C43.4012 29.893 45.1328 30.7296 46.3961 32.0934C47.6594 33.4571 48.3613 35.2476 48.3613 37.1066C48.3613 38.9656 47.6594 40.756 46.3961 42.1198C45.1328 43.4836 43.4012 44.3201 41.5476 44.4621C41.3557 44.4778 41.1637 44.4856 40.9678 44.4856ZM40.9678 31.0987C39.401 31.1388 37.9118 31.7893 36.8178 32.9116C35.7237 34.0339 35.1114 35.5393 35.1114 37.1066C35.1114 38.6739 35.7237 40.1792 36.8178 41.3015C37.9118 42.4239 39.401 43.0744 40.9678 43.1144C41.1245 43.1144 41.2812 43.1144 41.4379 43.1144C42.9467 42.9986 44.3562 42.3174 45.3845 41.2071C46.4127 40.0969 46.984 38.6394 46.984 37.1262C46.984 35.6129 46.4127 34.1554 45.3845 33.0452C44.3562 31.9349 42.9467 31.2538 41.4379 31.1379C41.2812 31.1027 41.1363 31.0987 40.9678 31.0987Z" fill="#FFA000"/>
<path d="M40.2156 39.9059C40.1248 39.9064 40.0348 39.8891 39.9508 39.8548C39.8668 39.8205 39.7903 39.77 39.7259 39.7061L37.1832 37.1321C37.0554 37.0028 36.9843 36.8279 36.9854 36.6461C36.9865 36.4642 37.0598 36.2903 37.1891 36.1625C37.3185 36.0347 37.4933 35.9635 37.6752 35.9646C37.857 35.9657 38.031 36.039 38.1588 36.1684L40.2156 38.2487L43.9335 34.5072C44.0638 34.3913 44.2334 34.3295 44.4078 34.3342C44.5821 34.339 44.7481 34.41 44.8719 34.5328C44.9957 34.6557 45.0681 34.821 45.0742 34.9953C45.0804 35.1696 45.0199 35.3397 44.9051 35.471L40.7014 39.7061C40.5721 39.8342 40.3975 39.906 40.2156 39.9059Z" fill="#FFA000"/>
<path d="M35.4401 17.6577H23.9298C23.8356 17.6648 23.7411 17.6524 23.6519 17.6213C23.5628 17.5902 23.4811 17.541 23.4119 17.4768C23.3426 17.4126 23.2874 17.3348 23.2496 17.2483C23.2119 17.1618 23.1924 17.0684 23.1924 16.974C23.1924 16.8796 23.2119 16.7863 23.2496 16.6997C23.2874 16.6132 23.3426 16.5354 23.4119 16.4713C23.4811 16.4071 23.5628 16.3579 23.6519 16.3268C23.7411 16.2956 23.8356 16.2833 23.9298 16.2904H34.7545V13.5832H32.0121C31.8838 13.5812 31.7587 13.5435 31.6507 13.4743C31.5428 13.4051 31.4562 13.3071 31.4009 13.1915L30.7349 11.8634H28.5997L27.8553 13.2228C27.7973 13.3314 27.7109 13.4223 27.6054 13.4858C27.4998 13.5492 27.3791 13.5829 27.2559 13.5832H24.0747C23.8929 13.5832 23.7185 13.511 23.5899 13.3824C23.4614 13.2539 23.3891 13.0795 23.3891 12.8976C23.3891 12.7158 23.4614 12.5414 23.5899 12.4128C23.7185 12.2843 23.8929 12.212 24.0747 12.212H26.8485L27.5772 10.8643C27.6359 10.7554 27.7229 10.6644 27.8292 10.6009C27.9354 10.5375 28.0568 10.504 28.1805 10.5039H31.1423C31.2712 10.5052 31.3972 10.5426 31.5059 10.6118C31.6146 10.6811 31.7017 10.7794 31.7574 10.8957L32.4195 12.2238H35.4401C35.6219 12.2238 35.7963 12.296 35.9249 12.4246C36.0534 12.5532 36.1257 12.7276 36.1257 12.9094V16.9838C36.1226 17.1636 36.049 17.335 35.9208 17.461C35.7925 17.5871 35.6199 17.6577 35.4401 17.6577Z" fill="#005AFF"/>
<path d="M36.7323 23.2237H22.4756C22.2938 23.2237 22.1194 23.1515 21.9908 23.0229C21.8623 22.8944 21.79 22.72 21.79 22.5381C21.79 22.3563 21.8623 22.1819 21.9908 22.0533C22.1194 21.9248 22.2938 21.8525 22.4756 21.8525H36.7323C36.9141 21.8525 37.0885 21.9248 37.217 22.0533C37.3456 22.1819 37.4179 22.3563 37.4179 22.5381C37.4179 22.72 37.3456 22.8944 37.217 23.0229C37.0885 23.1515 36.9141 23.2237 36.7323 23.2237Z" fill="#005AFF"/>
<path d="M36.7323 26.378H22.4756C22.2938 26.378 22.1194 26.3058 21.9908 26.1772C21.8623 26.0487 21.79 25.8743 21.79 25.6924C21.79 25.5106 21.8623 25.3362 21.9908 25.2076C22.1194 25.0791 22.2938 25.0068 22.4756 25.0068H36.7323C36.9141 25.0068 37.0885 25.0791 37.217 25.2076C37.3456 25.3362 37.4179 25.5106 37.4179 25.6924C37.4179 25.8743 37.3456 26.0487 37.217 26.1772C37.0885 26.3058 36.9141 26.378 36.7323 26.378Z" fill="#005AFF"/>
<path d="M36.7323 29.5274H22.4756C22.2938 29.5274 22.1194 29.4552 21.9908 29.3266C21.8623 29.1981 21.79 29.0237 21.79 28.8418C21.79 28.66 21.8623 28.4856 21.9908 28.3571C22.1194 28.2285 22.2938 28.1562 22.4756 28.1562H36.7323C36.9141 28.1563 37.0885 28.2285 37.217 28.3571C37.3456 28.4856 37.4179 28.66 37.4179 28.8418C37.4179 29.0237 37.3456 29.1981 37.217 29.3266C37.0885 29.4552 36.9141 29.5274 36.7323 29.5274Z" fill="#005AFF"/>
</svg>
