<svg width="30" height="30" viewBox="0 0 30 30" fill="white" xmlns="http://www.w3.org/2000/svg">
<path d="M15.0001 14.4258C16.9386 14.4258 18.5156 12.8487 18.5156 10.9102C18.5156 8.97164 16.9386 7.39453 15.0001 7.39453C13.0615 7.39453 11.4844 8.97164 11.4844 10.9102C11.4844 12.8487 13.0615 14.4258 15.0001 14.4258ZM15.0001 9.15235C15.9693 9.15235 16.7578 9.9409 16.7578 10.9102C16.7578 11.8794 15.9693 12.668 15.0001 12.668C14.0308 12.668 13.2422 11.8794 13.2422 10.9102C13.2422 9.9409 14.0308 9.15235 15.0001 9.15235Z" />
<path d="M26.1832 20.2148H20.3009C23.0476 17.5931 25.5468 15.0231 25.5468 10.5469C25.5468 4.5157 21.0181 0 15.0001 0C8.96984 0 4.45309 4.52912 4.45309 10.5469C4.45309 15.0231 6.95234 17.5931 9.6991 20.2148H3.8167L0.602539 30H29.3974L26.1832 20.2148ZM6.2109 10.5469C6.2109 5.45414 9.90728 1.75781 15.0001 1.75781C20.0928 1.75781 23.789 5.45414 23.789 10.5469C23.789 16.2444 18.9799 18.2624 15.0001 23.1693C13.8041 21.6947 12.525 20.4776 11.2811 19.2942C8.44836 16.5988 6.2109 14.4698 6.2109 10.5469ZM3.74228 26.0742H10.0781V24.3164H4.31967L5.08953 21.9727H11.4843V21.9332C13.8191 24.2484 14.4507 25.4088 15.0001 26.1007C15.563 25.3916 16.1741 24.2554 18.5156 21.9333V21.9727H24.9104L25.6803 24.3164H19.9218V26.0742H26.2576L26.9697 28.2422H3.03019L3.74228 26.0742Z" />
</svg>
