<svg width="20" height="20" viewBox="0 0 20 20" fill="white" xmlns="http://www.w3.org/2000/svg">
<path d="M10.0001 9.61719C11.2924 9.61719 12.3437 8.56578 12.3437 7.27344C12.3437 5.98109 11.2924 4.92969 10.0001 4.92969C8.7077 4.92969 7.65625 5.98109 7.65625 7.27344C7.65625 8.56578 8.7077 9.61719 10.0001 9.61719ZM10.0001 6.10156C10.6462 6.10156 11.1719 6.62727 11.1719 7.27344C11.1719 7.91961 10.6462 8.44532 10.0001 8.44532C9.35387 8.44532 8.82812 7.91961 8.82812 7.27344C8.82812 6.62727 9.35387 6.10156 10.0001 6.10156Z" />
<path d="M17.4552 13.4766H13.5336C15.3648 11.7287 17.0309 10.0154 17.0309 7.03125C17.0309 3.01047 14.0118 0 9.99973 0C5.97957 0 2.9684 3.01941 2.9684 7.03125C2.9684 10.0154 4.63457 11.7287 6.46574 13.4766H2.54414L0.401367 20H19.5979L17.4552 13.4766ZM4.14027 7.03125C4.14027 3.63609 6.60453 1.17188 9.99973 1.17188C13.3948 1.17188 15.859 3.63609 15.859 7.03125C15.859 10.8296 12.6529 12.1749 9.99973 15.4462C9.20238 14.4632 8.34965 13.6517 7.52043 12.8628C5.63191 11.0659 4.14027 9.64652 4.14027 7.03125ZM2.49453 17.3828H6.7184V16.2109H2.87945L3.39269 14.6484H7.6559V14.6221C9.21238 16.1656 9.63348 16.9392 9.99973 17.4005C10.375 16.9277 10.7824 16.1702 12.3434 14.6222V14.6484H16.6066L17.1199 16.2109H13.2809V17.3828H17.5048L17.9795 18.8281H2.0198L2.49453 17.3828Z" />
</svg>
