<svg width="60" height="59" viewBox="0 0 60 59" fill="none" xmlns="http://www.w3.org/2000/svg">
<path d="M27.988 47.3335C24.1217 47.3335 20.4138 45.7976 17.6799 43.0637C14.946 40.3298 13.4102 36.6219 13.4102 32.7556C13.4102 28.8893 14.946 25.1814 17.6799 22.4475C20.4138 19.7136 24.1217 18.1777 27.988 18.1777C28.3093 18.1777 28.94 18.2091 28.94 18.2091L28.8695 19.6351C28.8695 19.6351 28.2858 19.5881 27.988 19.5881C25.3873 19.5873 22.8448 20.3576 20.6818 21.8016C18.5189 23.2456 16.8325 25.2984 15.836 27.7006C14.8396 30.1028 14.5776 32.7465 15.0834 35.2976C15.5891 37.8486 16.8399 40.1924 18.6775 42.0327C20.515 43.8731 22.857 45.1273 25.4073 45.6368C27.9576 46.1464 30.6017 45.8884 33.0053 44.8955C35.409 43.9026 37.4644 42.2193 38.9115 40.0585C40.3587 37.8977 41.1328 35.3563 41.1359 32.7556C41.1362 31.5303 40.9675 30.3109 40.6344 29.1317C40.6087 29.0417 40.601 28.9474 40.6117 28.8544C40.6224 28.7614 40.6513 28.6714 40.6967 28.5895C40.7422 28.5077 40.8034 28.4356 40.8767 28.3774C40.95 28.3191 41.0341 28.2759 41.1242 28.2502C41.2142 28.2245 41.3084 28.2168 41.4014 28.2274C41.4945 28.2381 41.5845 28.267 41.6663 28.3125C41.8316 28.4044 41.9537 28.5581 42.0057 28.7399C42.625 30.9096 42.7326 33.1934 42.3199 35.4116C41.9072 37.6299 40.9855 39.7222 39.6273 41.5239C38.2691 43.3257 36.5113 44.7877 34.4924 45.7951C32.4734 46.8025 30.2483 47.3277 27.9919 47.3296L27.988 47.3335Z" fill="#005AFF"/>
<path d="M37.2695 25.2969C36.4125 25.2969 35.5748 25.0428 34.8622 24.5666C34.1497 24.0905 33.5943 23.4138 33.2664 22.622C32.9384 21.8303 32.8526 20.9591 33.0198 20.1185C33.187 19.278 33.5997 18.506 34.2056 17.9C34.8116 17.294 35.5837 16.8813 36.4242 16.7141C37.2647 16.5469 38.1359 16.6327 38.9277 16.9607C39.7195 17.2886 40.3962 17.844 40.8723 18.5566C41.3484 19.2691 41.6025 20.1069 41.6025 20.9639C41.6015 22.1127 41.1447 23.2143 40.3323 24.0266C39.5199 24.839 38.4184 25.2958 37.2695 25.2969ZM37.2695 18.0569C36.6946 18.0569 36.1326 18.2274 35.6545 18.5468C35.1765 18.8662 34.8039 19.3203 34.5839 19.8514C34.3638 20.3826 34.3063 20.9671 34.4184 21.531C34.5306 22.0949 34.8075 22.6129 35.214 23.0194C35.6206 23.4259 36.1385 23.7028 36.7024 23.815C37.2663 23.9271 37.8508 23.8696 38.382 23.6495C38.9132 23.4295 39.3672 23.0569 39.6866 22.5789C40.006 22.1008 40.1765 21.5388 40.1765 20.9639C40.1754 20.1932 39.8688 19.4544 39.3239 18.9095C38.779 18.3646 38.0402 18.058 37.2695 18.0569Z" fill="#FFA000"/>
<path d="M26.5505 44.3993C26.3665 44.3982 26.1899 44.3267 26.0569 44.1995L16.8855 35.3768L14.6798 35.4865C14.4907 35.4958 14.3056 35.4297 14.1653 35.3026C14.025 35.1755 13.9409 34.9978 13.9315 34.8087C13.9222 34.6196 13.9883 34.4345 14.1154 34.2942C14.2426 34.1539 14.4202 34.0698 14.6093 34.0604L17.1206 33.939C17.218 33.9339 17.3155 33.9486 17.4071 33.9823C17.4987 34.0159 17.5824 34.0678 17.6534 34.1349L26.1431 42.3112L27.0912 38.2916C27.1153 38.1943 27.1579 38.1025 27.2166 38.0212L29.293 35.2788L28.5525 33.4375L26.2881 34.3268C26.1879 34.3659 26.0803 34.3819 25.9732 34.3738C25.8661 34.3657 25.7621 34.3335 25.6691 34.2798L23.9688 33.3004L21.5241 33.6569C21.4231 33.6717 21.3202 33.6647 21.2222 33.6363C21.1242 33.6079 21.0334 33.5588 20.956 33.4924L18.5466 31.4316C18.4296 31.3305 18.3484 31.1941 18.3152 31.043C18.282 30.8919 18.2986 30.7341 18.3625 30.5932L19.8434 27.318C19.8879 27.2212 19.9535 27.1356 20.0354 27.0673L23.4555 24.1721L22.2332 20.8028C22.193 20.713 22.1717 20.6158 22.1707 20.5173C22.1697 20.4189 22.1889 20.3213 22.2273 20.2306C22.2657 20.1399 22.3223 20.0581 22.3936 19.9903C22.465 19.9224 22.5496 19.87 22.6421 19.8363C22.7346 19.8026 22.8331 19.7883 22.9313 19.7943C23.0296 19.8003 23.1256 19.8265 23.2133 19.8712C23.301 19.916 23.3786 19.9783 23.4412 20.0543C23.5037 20.1303 23.55 20.2184 23.577 20.3131L24.9678 24.1447C25.0153 24.2814 25.0205 24.4293 24.9827 24.569C24.945 24.7088 24.8661 24.8339 24.7562 24.9282L21.0775 28.0467L19.9022 30.6873L21.6573 32.1878L24.0275 31.843C24.1874 31.8198 24.3504 31.8516 24.4898 31.9331L26.1078 32.8694L28.7092 31.8547C28.8838 31.7849 29.079 31.7869 29.2522 31.8603C29.4253 31.9336 29.5625 32.0725 29.6338 32.2465L30.8091 35.1221C30.8555 35.2365 30.8712 35.361 30.8547 35.4833C30.8382 35.6056 30.7901 35.7215 30.7151 35.8195L28.4859 38.7539L27.2871 43.8469C27.2488 44.0034 27.1594 44.1427 27.0331 44.2427C26.9068 44.3427 26.7508 44.3978 26.5897 44.3993H26.5505Z" fill="#005AFF"/>
<path d="M38.7622 40.834H36.0433C35.9286 40.8337 35.8157 40.8058 35.7141 40.7526C35.6124 40.6994 35.5251 40.6225 35.4596 40.5284L33.0698 37.0965C32.9887 36.983 32.9428 36.8482 32.9379 36.7088C32.9331 36.5694 32.9694 36.4317 33.0424 36.3129L34.0845 34.593C34.1326 34.5125 34.1961 34.4423 34.2713 34.3863C34.3466 34.3303 34.4321 34.2897 34.5231 34.2668C34.614 34.2438 34.7086 34.2391 34.8014 34.2527C34.8942 34.2663 34.9834 34.2981 35.0639 34.3462C35.1444 34.3943 35.2147 34.4578 35.2707 34.5331C35.3266 34.6083 35.3672 34.6939 35.3902 34.7848C35.4131 34.8758 35.4179 34.9703 35.4042 35.0631C35.3906 35.1559 35.3588 35.2451 35.3107 35.3256L34.5272 36.6577L36.439 39.4001H38.7897C38.9788 39.4001 39.1601 39.4752 39.2939 39.6089C39.4276 39.7426 39.5027 39.924 39.5027 40.1131C39.5027 40.3022 39.4276 40.4836 39.2939 40.6173C39.1601 40.751 38.9788 40.8261 38.7897 40.8261L38.7622 40.834Z" fill="#005AFF"/>
<path d="M37.2656 33.6571C37.0776 33.6567 36.8974 33.582 36.7641 33.4494L30.7857 27.5219C29.8885 26.6816 29.1737 25.6658 28.6857 24.5376C28.1978 23.4094 27.9471 22.1928 27.9492 20.9636C27.9487 20.2195 28.0355 19.4779 28.2078 18.754C28.7302 16.5845 30.0162 14.6756 31.8305 13.3764C33.6448 12.0771 35.8662 11.4745 38.0883 11.6786C40.2529 11.8858 42.2788 12.8368 43.821 14.3697C45.3632 15.9027 46.3264 17.9228 46.5467 20.0861C46.6308 21.0026 46.5807 21.9264 46.3978 22.8285C45.9992 24.6061 45.0847 26.2265 43.769 27.4866L37.7671 33.4494C37.6338 33.582 37.4536 33.6567 37.2656 33.6571ZM37.2656 13.0694C35.4962 13.0629 33.7764 13.654 32.3849 14.7468C30.9934 15.8397 30.0116 17.3704 29.5986 19.091C29.3633 20.0829 29.3168 21.1102 29.4615 22.1194C29.74 23.797 30.5568 25.3385 31.7886 26.5111L37.2734 31.9372L42.7582 26.4955C43.8704 25.4366 44.647 24.0743 44.9913 22.5777C45.15 21.8048 45.1922 21.0125 45.1167 20.2271C44.9324 18.3958 44.1193 16.685 42.8158 15.3857C41.5122 14.0865 39.7987 13.279 37.9669 13.1007C37.7318 13.0812 37.4967 13.0694 37.2656 13.0694Z" fill="#FFA000"/>
</svg>
