<svg width="20" height="22" viewBox="0 0 20 22" fill="none" xmlns="http://www.w3.org/2000/svg">
<path d="M8.78834 21.5181C6.45753 21.5181 4.22218 20.5922 2.57405 18.944C0.925912 17.2959 0 15.0606 0 12.7298C0 10.3989 0.925912 8.16359 2.57405 6.51545C4.22218 4.86732 6.45753 3.94141 8.78834 3.94141C8.98201 3.94141 9.36226 3.9603 9.36226 3.9603L9.31975 4.82C9.31975 4.82 8.96784 4.79166 8.78834 4.79166C7.22051 4.7912 5.68773 5.25557 4.38377 6.12608C3.0798 6.99659 2.0632 8.23415 1.46246 9.68233C0.861721 11.1305 0.703821 12.7243 1.00872 14.2622C1.31361 15.8001 2.06762 17.2131 3.17542 18.3225C4.28322 19.432 5.69508 20.1881 7.23253 20.4953C8.76997 20.8025 10.364 20.6469 11.8131 20.0483C13.2621 19.4498 14.5012 18.435 15.3736 17.1323C16.2461 15.8297 16.7128 14.2976 16.7146 12.7298C16.7148 11.9911 16.6131 11.2559 16.4123 10.5451C16.3968 10.4908 16.3921 10.434 16.3986 10.3779C16.405 10.3218 16.4224 10.2676 16.4499 10.2182C16.4773 10.1689 16.5141 10.1254 16.5584 10.0903C16.6026 10.0552 16.6533 10.0292 16.7075 10.0137C16.7618 9.99815 16.8186 9.99348 16.8747 9.99993C16.9308 10.0064 16.985 10.0238 17.0344 10.0512C17.134 10.1066 17.2076 10.1993 17.2389 10.3089C17.6123 11.6169 17.6772 12.9937 17.4284 14.331C17.1796 15.6682 16.624 16.9296 15.8051 18.0158C14.9863 19.102 13.9267 19.9834 12.7095 20.5907C11.4924 21.198 10.1509 21.5146 8.7907 21.5157L8.78834 21.5181Z" fill="white"/>
<path d="M14.3827 8.23315C13.866 8.23315 13.361 8.07995 12.9314 7.79292C12.5019 7.50589 12.1671 7.09792 11.9693 6.62061C11.7716 6.14329 11.7199 5.61807 11.8207 5.11136C11.9215 4.60465 12.1703 4.1392 12.5356 3.77388C12.9009 3.40856 13.3664 3.15977 13.8731 3.05898C14.3798 2.95819 14.905 3.00992 15.3823 3.20763C15.8596 3.40534 16.2676 3.74015 16.5546 4.16972C16.8417 4.59929 16.9949 5.10433 16.9949 5.62097C16.9942 6.31357 16.7188 6.97762 16.2291 7.46737C15.7393 7.95711 15.0753 8.23252 14.3827 8.23315V8.23315ZM14.3827 3.86849C14.0361 3.86849 13.6973 3.97128 13.4091 4.16384C13.1209 4.3564 12.8963 4.6301 12.7636 4.95033C12.631 5.27055 12.5963 5.62291 12.6639 5.96286C12.7315 6.30281 12.8984 6.61507 13.1435 6.86016C13.3886 7.10524 13.7008 7.27215 14.0408 7.33977C14.3807 7.40739 14.7331 7.37268 15.0533 7.24004C15.3735 7.1074 15.6472 6.88278 15.8398 6.59459C16.0324 6.3064 16.1352 5.96758 16.1352 5.62097C16.1345 5.15638 15.9497 4.71099 15.6212 4.38247C15.2927 4.05396 14.8473 3.86912 14.3827 3.86849V3.86849Z" fill="white"/>
<path d="M7.92144 19.7491C7.8105 19.7484 7.70404 19.7053 7.62385 19.6287L2.09482 14.3098L0.765111 14.376C0.651107 14.3816 0.539532 14.3417 0.454933 14.2651C0.370334 14.1885 0.31964 14.0814 0.314002 13.9674C0.308365 13.8534 0.348246 13.7418 0.424872 13.6572C0.501499 13.5726 0.608594 13.5219 0.722598 13.5163L2.23653 13.443C2.29527 13.44 2.35403 13.4488 2.40925 13.4691C2.46446 13.4894 2.51498 13.5207 2.55774 13.5611L7.67581 18.4903L8.24737 16.067C8.26191 16.0084 8.28757 15.953 8.32295 15.9041L9.57472 14.2508L9.12833 13.1407L7.7632 13.6769C7.70285 13.7004 7.63798 13.7101 7.57339 13.7052C7.5088 13.7003 7.44613 13.6809 7.39003 13.6485L6.365 13.0581L4.89122 13.273C4.83036 13.2819 4.7683 13.2777 4.70922 13.2606C4.65014 13.2435 4.59542 13.2139 4.54875 13.1738L3.09623 11.9315C3.02567 11.8705 2.97674 11.7883 2.95673 11.6972C2.93672 11.6061 2.94672 11.511 2.98523 11.426L3.878 9.45156C3.90486 9.3932 3.94439 9.34156 3.99373 9.3004L6.0556 7.55501L5.31871 5.52384C5.29446 5.46966 5.28163 5.41107 5.28101 5.35172C5.2804 5.29236 5.29202 5.23352 5.31514 5.17885C5.33827 5.12419 5.37241 5.07487 5.41543 5.03398C5.45846 4.99308 5.50944 4.96149 5.56521 4.94116C5.62098 4.92084 5.68034 4.91222 5.73959 4.91585C5.79883 4.91947 5.8567 4.93526 5.90957 4.96222C5.96245 4.98919 6.00921 5.02676 6.04693 5.0726C6.08465 5.11843 6.11252 5.17154 6.12882 5.22861L6.96726 7.53848C6.99589 7.62092 6.99903 7.71006 6.97629 7.79431C6.95354 7.87857 6.90595 7.95402 6.83972 8.01084L4.62197 9.89085L3.91342 11.4827L4.97152 12.3873L6.40043 12.1795C6.4968 12.1655 6.59506 12.1846 6.67912 12.2338L7.65455 12.7983L9.22281 12.1865C9.32808 12.1444 9.44573 12.1456 9.55013 12.1899C9.65453 12.2341 9.73722 12.3178 9.7802 12.4227L10.4887 14.1563C10.5167 14.2253 10.5262 14.3003 10.5162 14.374C10.5063 14.4478 10.4773 14.5176 10.4321 14.5767L9.08818 16.3457L8.36546 19.4161C8.34237 19.5104 8.2885 19.5944 8.21237 19.6547C8.13623 19.715 8.04218 19.7482 7.94506 19.7491H7.92144Z" fill="white"/>
<path d="M15.283 17.6001H13.6439C13.5747 17.5999 13.5066 17.5831 13.4453 17.551C13.3841 17.519 13.3315 17.4726 13.2919 17.4158L11.8512 15.3469C11.8023 15.2785 11.7747 15.1972 11.7717 15.1132C11.7688 15.0292 11.7907 14.9461 11.8347 14.8745L12.4629 13.8377C12.4919 13.7891 12.5302 13.7468 12.5756 13.713C12.621 13.6793 12.6725 13.6548 12.7274 13.641C12.7822 13.6272 12.8392 13.6243 12.8951 13.6325C12.9511 13.6407 13.0049 13.6599 13.0534 13.6889C13.1019 13.7179 13.1443 13.7561 13.178 13.8015C13.2118 13.8469 13.2363 13.8985 13.2501 13.9533C13.2639 14.0081 13.2668 14.0651 13.2586 14.1211C13.2504 14.177 13.2312 14.2308 13.2022 14.2793L12.7298 15.0823L13.8824 16.7356H15.2995C15.4135 16.7356 15.5228 16.7809 15.6035 16.8615C15.6841 16.9421 15.7294 17.0515 15.7294 17.1655C15.7294 17.2795 15.6841 17.3888 15.6035 17.4694C15.5228 17.55 15.4135 17.5953 15.2995 17.5953L15.283 17.6001Z" fill="white"/>
<path d="M14.3811 13.2733C14.2677 13.2731 14.1591 13.2281 14.0788 13.1481L10.4746 9.5747C9.93374 9.06815 9.50282 8.45576 9.20865 7.77561C8.91449 7.09545 8.76336 6.36205 8.76466 5.62101C8.76436 5.17242 8.81668 4.72534 8.92054 4.28894C9.23547 2.98104 10.0107 1.83023 11.1045 1.04699C12.1982 0.263746 13.5374 -0.0995711 14.8771 0.0234879C16.182 0.148382 17.4033 0.721707 18.333 1.64585C19.2628 2.56999 19.8435 3.78781 19.9762 5.09196V5.09196C20.027 5.64448 19.9967 6.20145 19.8865 6.74524C19.6462 7.8169 19.0949 8.79379 18.3017 9.55345L14.6834 13.1481C14.6031 13.2281 14.4944 13.2731 14.3811 13.2733V13.2733ZM14.3811 0.861936C13.3144 0.858009 12.2776 1.21434 11.4387 1.87319C10.5998 2.53204 10.008 3.45483 9.75899 4.49206C9.61715 5.09005 9.5891 5.70939 9.67632 6.31775C9.84425 7.32915 10.3367 8.25845 11.0792 8.96535L14.3858 12.2365L17.6924 8.9559C18.3628 8.31756 18.831 7.49627 19.0386 6.59408C19.1342 6.12812 19.1597 5.65048 19.1142 5.17699V5.17699C19.0031 4.07301 18.5129 3.04163 17.727 2.25835C16.9412 1.47507 15.9082 0.988285 14.8038 0.88083C14.6621 0.869021 14.5204 0.861936 14.3811 0.861936Z" fill="white"/>
</svg>
