<svg width="111" height="22" viewBox="0 0 111 22" fill="none" xmlns="http://www.w3.org/2000/svg">
<path d="M39.6742 10.2444C38.8079 9.84105 37.5141 9.43896 35.7916 9.03561C35.2005 8.89862 34.7249 8.76163 34.3647 8.62464C33.9955 8.48765 33.6911 8.29866 33.4514 8.05893C33.2117 7.8192 33.0912 7.54016 33.0912 7.22305C33.0912 6.72584 33.303 6.34024 33.7279 6.06627C34.1516 5.79229 34.7198 5.65531 35.4314 5.65531C36.006 5.65531 36.507 5.80498 36.9357 6.10559C37.2896 6.37322 37.5242 6.67256 37.6409 7.00742C37.6815 7.12285 37.7982 7.19261 37.92 7.18373L41.0935 6.97444C41.2572 6.9643 41.3815 6.8159 41.3548 6.65354C41.1646 5.52339 40.6014 4.65326 39.6679 4.04189C38.6519 3.37724 37.2744 3.04492 35.5354 3.04492C33.615 3.04492 32.1069 3.40007 31.0097 4.11165C29.9214 4.81435 29.3773 5.84303 29.3773 7.19642C29.3773 7.87374 29.4711 8.42424 29.6601 8.84788C29.8491 9.27153 30.1789 9.64318 30.6495 9.96028C31.1467 10.2951 31.682 10.5602 32.2566 10.7568C32.9072 10.9801 33.7343 11.2071 34.7376 11.438C36.9484 11.9352 38.0544 12.6468 38.0544 13.5714C38.0544 14.1029 37.8185 14.5202 37.3467 14.8246C36.8748 15.129 36.2622 15.2812 35.5087 15.2812C34.8403 15.2812 34.2403 15.1189 33.7089 14.7929C33.2434 14.5075 32.9326 14.1283 32.7766 13.6526C32.7347 13.527 32.6054 13.4522 32.4747 13.4636L29.338 13.7274C29.1705 13.7414 29.0564 13.8974 29.0843 14.0623C29.2834 15.2571 29.9125 16.1869 30.9717 16.8503C32.1107 17.5694 33.6239 17.9297 35.51 17.9297C37.4634 17.9297 38.9867 17.5403 40.0801 16.7602C41.1734 15.9801 41.7404 14.8703 41.7836 13.4306C41.8178 12.4882 41.5223 11.6955 40.8969 11.0524C40.5951 10.7543 40.1879 10.4854 39.6742 10.2444Z" fill="#005AFF"/>
<path d="M50.708 3.26488H47.6981C47.5421 3.26488 47.4165 3.13804 47.4165 2.98329V0.281586C47.4165 0.125572 47.2897 0 47.135 0H43.9969C43.8409 0 43.7153 0.126841 43.7153 0.281586V12.8553C43.7153 14.5867 44.0667 15.8678 44.7694 16.6986C45.4632 17.5294 46.6377 17.9454 48.2917 17.9454C49.0604 17.9454 49.8798 17.8807 50.7499 17.7513C50.8882 17.7311 50.9922 17.6105 50.9922 17.471V15.0027C50.9922 14.8277 50.8349 14.6983 50.6611 14.7249C49.9749 14.8289 49.3394 14.8188 48.7547 14.692C47.863 14.5638 47.4178 13.9081 47.4178 12.7247V6.43716C47.4178 6.28115 47.5446 6.15558 47.6994 6.15558H50.7093C50.8653 6.15558 50.9909 6.02873 50.9909 5.87399V3.5452C50.9909 3.39172 50.8641 3.26488 50.708 3.26488Z" fill="#005AFF"/>
<path d="M67.679 3.26504H64.541C64.385 3.26504 64.2594 3.39189 64.2594 3.54663V5.13848C64.2594 5.20952 64.1693 5.23361 64.13 5.17527C63.7089 4.53852 63.0899 4.03497 62.2731 3.66332C61.3687 3.25236 60.3121 3.04688 59.1046 3.04688C58.1698 3.04688 57.2857 3.2308 56.4498 3.5999C55.6139 3.96901 54.8833 4.47891 54.258 5.1296C53.6416 5.78918 53.157 6.587 52.8057 7.52055C52.4543 8.45537 52.2793 9.44854 52.2793 10.5026C52.2793 11.5566 52.4543 12.5511 52.8057 13.4846C53.157 14.4194 53.6416 15.2122 54.258 15.8629C54.8833 16.5148 55.6139 17.0247 56.4498 17.3926C57.2857 17.7604 58.1698 17.9456 59.1046 17.9456C61.6135 17.9456 63.2878 17.2454 64.1275 15.8451C64.1643 15.783 64.2594 15.8058 64.2594 15.8794V17.4585C64.2594 17.6146 64.3862 17.7401 64.541 17.7401H67.679C67.835 17.7401 67.9606 17.6133 67.9606 17.4585V3.54663C67.9606 3.39189 67.8337 3.26504 67.679 3.26504ZM63.062 13.5874C62.2477 14.4017 61.2621 14.8088 60.1054 14.8088C58.9562 14.8088 57.9846 14.4017 57.1868 13.5874C56.3889 12.773 55.9907 11.7444 55.9907 10.5026C55.9907 9.24305 56.3889 8.21057 57.1868 7.40386C57.9668 6.59842 58.9384 6.19507 60.1054 6.19507C61.271 6.19507 62.2566 6.59842 63.062 7.40386C63.8586 8.2093 64.2581 9.23798 64.2581 10.4886C64.2581 11.7418 63.8598 12.7743 63.062 13.5874Z" fill="#005AFF"/>
<path d="M79.0642 3.04887C77.9125 3.06916 76.984 3.21375 76.2801 3.48392C75.5621 3.75536 74.9229 4.23355 74.361 4.92103C74.3191 4.97303 74.2367 4.94513 74.2367 4.87917V3.54861C74.2367 3.3926 74.1098 3.26703 73.9551 3.26703H70.8158C70.6598 3.26703 70.5342 3.39387 70.5342 3.54861V17.4592C70.5342 17.6152 70.661 17.7408 70.8158 17.7408H73.9538C74.1098 17.7408 74.2354 17.614 74.2354 17.4592V10.5033C74.2354 9.19175 74.6806 8.14278 75.5723 7.35383C76.4044 6.62703 77.5713 6.24271 79.0731 6.20085C79.2266 6.19705 79.3509 6.07401 79.3509 5.92053V3.33299C79.3521 3.17444 79.2215 3.04633 79.0642 3.04887Z" fill="#005AFF"/>
<path d="M93.3707 5.34523C92.6769 4.60829 91.8359 4.04257 90.8516 3.64429C89.8673 3.24348 88.8032 3.04688 87.6641 3.04688C86.2397 3.04688 84.9421 3.33988 83.7689 3.93222C82.5867 4.52457 81.6329 5.39343 80.9137 6.54134C80.1945 7.68037 79.833 9.00077 79.833 10.5013C79.833 11.9828 80.1945 13.2994 80.9137 14.4473C81.624 15.5787 82.569 16.4438 83.7435 17.0425C84.9168 17.6437 86.2232 17.943 87.6641 17.943C89.1532 17.943 90.5218 17.5955 91.7661 16.9017C92.1708 16.6797 92.5449 16.4298 92.8887 16.152C93.0168 16.048 93.0231 15.854 92.9064 15.736L90.9772 13.8068C90.8668 13.6964 90.6893 13.704 90.5802 13.8169C90.3798 14.0224 90.1603 14.2038 89.9219 14.3623C89.2649 14.7961 88.514 15.0118 87.6654 15.0118C86.6862 15.0118 85.8313 14.7099 85.0931 14.101C84.3777 13.51 83.9059 12.7261 83.675 11.7469C83.6649 11.7025 83.6991 11.6581 83.7448 11.6581H95.0957C95.2479 11.6581 95.3747 11.5376 95.3798 11.3854C95.4217 10.2032 95.2796 9.10732 94.9549 8.09767C94.601 7.00937 94.0734 6.09359 93.3707 5.34523ZM91.5987 9.34578H83.741C83.6953 9.34578 83.661 9.30266 83.6699 9.25826C83.8767 8.26129 84.3333 7.47235 85.0411 6.88888C85.7514 6.29146 86.6266 5.98958 87.6641 5.98958C88.708 5.98958 89.5883 6.29146 90.2986 6.88888C90.9975 7.47235 91.4541 8.26129 91.6685 9.25826C91.6786 9.30266 91.6444 9.34578 91.5987 9.34578Z" fill="#005AFF"/>
<path d="M105.57 10.5438C105.554 10.5197 105.554 10.4879 105.57 10.4638L110.225 3.7083C110.355 3.52057 110.22 3.26562 109.993 3.26562H106.539C106.447 3.26562 106.361 3.31129 106.307 3.38613L102.9 8.28472C102.872 8.32531 102.813 8.32531 102.785 8.28472L99.378 3.38613C99.3247 3.31002 99.2385 3.26562 99.1459 3.26562H95.6781C95.451 3.26562 95.3166 3.52057 95.446 3.7083L100.104 10.4638C100.12 10.4879 100.12 10.5197 100.104 10.5438L95.446 17.2993C95.3166 17.4857 95.451 17.742 95.6781 17.742H99.1459C99.2385 17.742 99.3247 17.6963 99.378 17.6215L102.785 12.7203C102.813 12.6798 102.872 12.6798 102.9 12.7203L106.307 17.6215C106.361 17.6976 106.447 17.742 106.539 17.742H109.993C110.22 17.742 110.355 17.487 110.225 17.2993L105.57 10.5438Z" fill="#005AFF"/>
<path d="M20.1571 9.42556H12.0375V1.30599C12.0375 0.585493 11.4536 0 10.7316 0C10.0111 0 9.42557 0.583976 9.42557 1.30599V9.42556H1.30599C0.585498 9.42556 0 10.0095 0 10.7316C0 11.452 0.583981 12.0375 1.30599 12.0375H9.42557V20.1571C9.42557 20.8776 10.0095 21.4631 10.7316 21.4631C11.452 21.4631 12.0375 20.8791 12.0375 20.1571V12.0375H20.1571C20.8776 12.0375 21.4631 11.4536 21.4631 10.7316C21.4631 10.0111 20.8776 9.42556 20.1571 9.42556Z" fill="#FFA000"/>
<path d="M18.3203 16.4723L12.5791 10.7311L18.3203 4.98994C18.8299 4.48029 18.8299 3.65361 18.3203 3.14396C17.8106 2.63431 16.9839 2.63431 16.4743 3.14396L10.7331 8.88516L4.99189 3.14396C4.48224 2.63431 3.65557 2.63431 3.14591 3.14396C2.63626 3.65361 2.63626 4.48029 3.14591 4.98994L8.88711 10.7311L3.14591 16.4723C2.63626 16.982 2.63626 17.8087 3.14591 18.3183C3.65557 18.828 4.48224 18.828 4.99189 18.3183L10.7331 12.5771L16.4743 18.3183C16.9839 18.828 17.8106 18.828 18.3203 18.3183C18.8299 17.8087 18.8299 16.982 18.3203 16.4723Z" fill="#005AFF"/>
</svg>
