<svg width="20" height="20" viewBox="0 0 20 20" fill="white" xmlns="http://www.w3.org/2000/svg">
<g clip-path="url(#clip0)">
<path d="M19.3745 9.37594H11.458C11.113 9.37594 10.833 9.09595 10.833 8.75096C10.833 8.40597 11.113 8.12598 11.458 8.12598H19.3745C19.7195 8.12598 19.9994 8.40597 19.9994 8.75096C19.9994 9.09595 19.7195 9.37594 19.3745 9.37594Z" />
<path d="M16.2498 12.5003C16.0898 12.5003 15.9299 12.4394 15.8081 12.317C15.564 12.0727 15.564 11.6769 15.8081 11.4328L18.4914 8.74963L15.8081 6.0663C15.564 5.82217 15.564 5.42637 15.8081 5.18224C16.0524 4.93795 16.4482 4.93795 16.6923 5.18224L19.8172 8.30714C20.0613 8.55127 20.0613 8.94707 19.8172 9.19121L16.6923 12.3161C16.5698 12.4394 16.4099 12.5003 16.2498 12.5003Z" />
<path d="M6.66651 20.0003C6.48814 20.0003 6.31892 19.9753 6.14986 19.9228L1.13491 18.2521C0.452562 18.0137 0 17.3779 0 16.6672V1.66764C0 0.748481 0.747505 0.000976562 1.66667 0.000976562C1.84488 0.000976562 2.0141 0.0260002 2.18331 0.0784888L7.19811 1.74927C7.88061 1.98761 8.33302 2.62342 8.33302 3.33415V18.3337C8.33302 19.2528 7.58567 20.0003 6.66651 20.0003ZM1.66667 1.25094C1.43749 1.25094 1.24996 1.43846 1.24996 1.66764V16.6672C1.24996 16.8446 1.36913 17.0096 1.53911 17.0688L6.53056 18.7321C6.56641 18.7437 6.6131 18.7504 6.66651 18.7504C6.89569 18.7504 7.08306 18.5629 7.08306 18.3337V3.33415C7.08306 3.1567 6.96389 2.99176 6.79392 2.93256L1.80246 1.26925C1.76661 1.25765 1.71992 1.25094 1.66667 1.25094Z" />
<path d="M12.7082 6.66749C12.3632 6.66749 12.0832 6.3875 12.0832 6.04251V2.29262C12.0832 1.71845 11.6159 1.25094 11.0417 1.25094H1.66697C1.32198 1.25094 1.04199 0.970948 1.04199 0.625957C1.04199 0.280967 1.32198 0.000976562 1.66697 0.000976562H11.0417C12.3058 0.000976562 13.3332 1.02847 13.3332 2.29262V6.04251C13.3332 6.3875 13.0532 6.66749 12.7082 6.66749Z" />
<path d="M11.0413 17.5005H7.70799C7.363 17.5005 7.08301 17.2205 7.08301 16.8755C7.08301 16.5305 7.363 16.2505 7.70799 16.2505H11.0413C11.6155 16.2505 12.0828 15.783 12.0828 15.2088V11.459C12.0828 11.114 12.3628 10.834 12.7078 10.834C13.0528 10.834 13.3328 11.114 13.3328 11.459V15.2088C13.3328 16.473 12.3055 17.5005 11.0413 17.5005Z" />
</g>
<defs>
<clipPath id="clip0">
<rect width="20" height="20" />
</clipPath>
</defs>
</svg>
