<svg width="15" height="18" viewBox="0 0 15 18" fill="none" xmlns="http://www.w3.org/2000/svg">
<path d="M13.9488 14.3245C13.8959 14.2902 13.4977 14.0112 13.099 13.1673C12.3667 11.6175 12.213 9.43439 12.213 7.87588C12.213 7.86909 12.2129 7.86238 12.2126 7.85563C12.2046 5.79586 10.9712 4.02026 9.20626 3.22358V2.00517C9.20626 0.899508 8.30823 0 7.20439 0H7.03849C5.93465 0 5.03662 0.899508 5.03662 2.00517V3.22351C3.26573 4.02275 2.02988 5.80743 2.02988 7.87588C2.02988 9.43439 1.87618 11.6175 1.14391 13.1673C0.745202 14.0112 0.346987 14.2901 0.294042 14.3245C0.0710808 14.4277 -0.0388529 14.6661 0.0124401 14.9076C0.0642253 15.1516 0.292249 15.3198 0.541261 15.3198H4.40659C4.42817 16.8013 5.63734 18 7.12146 18C8.60558 18 9.81474 16.8013 9.83633 15.3198H13.7017C13.9506 15.3198 14.1787 15.1516 14.2305 14.9076C14.2817 14.6661 14.1718 14.4277 13.9488 14.3245ZM6.09134 2.00517C6.09134 1.48201 6.51624 1.05641 7.03852 1.05641H7.20442C7.72671 1.05641 8.15161 1.48201 8.15161 2.00517V2.88116C7.81875 2.81236 7.47418 2.77615 7.12132 2.77615C6.76856 2.77615 6.4241 2.81232 6.09138 2.88105V2.00517H6.09134ZM7.12146 16.9436C6.21889 16.9436 5.48268 16.2188 5.46127 15.3198H8.7816C8.76023 16.2187 8.02402 16.9436 7.12146 16.9436ZM9.24489 14.2633C9.24479 14.2633 1.74308 14.2633 1.74308 14.2633C1.83431 14.1211 1.92716 13.9602 2.01944 13.7782C2.72622 12.3845 3.0846 10.3987 3.0846 7.87588C3.0846 5.64637 4.89547 3.83256 7.12128 3.83256C9.34709 3.83256 11.158 5.64637 11.158 7.87764C11.158 7.88414 11.1581 7.89061 11.1583 7.89708C11.1603 10.4098 11.5187 12.3885 12.2235 13.7782C12.3158 13.9602 12.4086 14.1211 12.4998 14.2633H9.24489Z" fill="#005FB5"/>
</svg>
