  <svg
                                    width="25"
                                    height="26"
                                    viewBox="0 0 25 26"
                                    fill="none"
                                    xmlns="http://www.w3.org/2000/svg"
                                >
                                    <g clipPath="url(#clip0)">
                                        <path
                                            d="M23.5752 8.48405L10.5466 8.48405L14.242 7.45422C14.4239 7.40344 14.5661 7.25562 14.6149 7.06637C14.6637 6.87706 14.6116 6.67517 14.4784 6.53653L9.86954 1.74319C9.73638 1.60466 9.54226 1.55049 9.36008 1.60122C9.17811 1.65199 9.03597 1.79982 8.98715 1.98907L7.31645 8.47361L5.64579 1.98912C5.59697 1.79987 5.45483 1.65204 5.27286 1.60127C5.09069 1.55049 4.89661 1.60466 4.76341 1.74325L0.154473 6.53648C0.021271 6.67501 -0.0307642 6.87701 0.0179561 7.06631C0.0667767 7.25556 0.208919 7.40339 0.390892 7.45417L4.0869 8.4841H3.63566C2.85011 8.4841 2.21102 9.14876 2.21102 9.96562L2.21102 22.9352C2.21102 23.7522 2.85016 24.4168 3.63566 24.4168L23.5752 24.4168C24.3609 24.4168 25 23.7521 25 22.9352L25 9.96557C25 9.1487 24.3608 8.48405 23.5752 8.48405ZM19.0485 16.5348H23.9452V21.6274L19.0485 16.5348ZM23.9452 15.4379H17.9937L15.8708 13.23L23.9452 13.23V15.4379ZM23.9452 9.96557V12.1331L14.816 12.1331L12.3622 9.58096L23.5752 9.58096C23.7792 9.58101 23.9452 9.75355 23.9452 9.96557ZM9.76963 3.19071L13.0866 6.64054L8.55545 7.90329L9.76963 3.19071ZM4.86336 3.19066L6.07755 7.90308L1.54626 6.64038L4.86336 3.19066ZM3.26574 13.2301L6.07142 13.2301L8.19436 15.4379L3.26574 15.4379L3.26574 13.2301ZM3.26574 12.1331L3.26574 10.3122L5.01665 12.1331H3.26574ZM3.26574 22.9352L3.26574 16.5348H9.24913L15.7732 23.3199L3.63561 23.3199C3.43169 23.3199 3.26574 23.1473 3.26574 22.9352ZM23.5752 23.3199H17.2649L4.05445 9.58101L10.8704 9.58101L23.8954 23.127C23.8314 23.2421 23.712 23.3199 23.5752 23.3199Z"
                                            fill="#005AFF"
                                        />
                                    </g>
                                    <defs>
                                        <clipPath id="clip0">
                                            <rect width="25" height="26" fill="white" />
                                        </clipPath>
                                    </defs>
                                </svg>