<svg width="20" height="20" viewBox="0 0 20 20" fill="white" xmlns="http://www.w3.org/2000/svg">
<g clip-path="url(#clip0)">
<path d="M14.5837 20.0003C11.597 20.0003 9.16699 17.5703 9.16699 14.5837C9.16699 11.597 11.597 9.16699 14.5837 9.16699C17.5703 9.16699 20.0003 11.597 20.0003 14.5837C20.0003 17.5703 17.5703 20.0003 14.5837 20.0003ZM14.5837 10.417C12.2862 10.417 10.417 12.2862 10.417 14.5837C10.417 16.8812 12.2862 18.7503 14.5837 18.7503C16.8812 18.7503 18.7503 16.8812 18.7503 14.5837C18.7503 12.2862 16.8812 10.417 14.5837 10.417Z" />
<path d="M16.0413 16.667C15.9155 16.667 15.7888 16.6295 15.678 16.5503L14.2197 15.5087C14.0555 15.392 13.958 15.202 13.958 15.0003V12.292C13.958 11.947 14.238 11.667 14.583 11.667C14.928 11.667 15.208 11.947 15.208 12.292V14.6787L16.4047 15.5328C16.6855 15.7337 16.7505 16.1237 16.5497 16.4045C16.428 16.5762 16.2355 16.667 16.0413 16.667Z" />
<path d="M7.01699 13.75H1.04199C0.696992 13.75 0.416992 13.47 0.416992 13.125C0.416992 12.78 0.696992 12.5 1.04199 12.5H7.01699C7.36199 12.5 7.64199 12.78 7.64199 13.125C7.64199 13.47 7.36199 13.75 7.01699 13.75Z" />
<path d="M10.8333 4.99967C11.2936 4.99967 11.6667 4.62658 11.6667 4.16634C11.6667 3.7061 11.2936 3.33301 10.8333 3.33301C10.3731 3.33301 10 3.7061 10 4.16634C10 4.62658 10.3731 4.99967 10.8333 4.99967Z" />
<path d="M7.50033 4.99967C7.96056 4.99967 8.33366 4.62658 8.33366 4.16634C8.33366 3.7061 7.96056 3.33301 7.50033 3.33301C7.04009 3.33301 6.66699 3.7061 6.66699 4.16634C6.66699 4.62658 7.04009 4.99967 7.50033 4.99967Z" />
<path d="M4.16634 4.99967C4.62658 4.99967 4.99967 4.62658 4.99967 4.16634C4.99967 3.7061 4.62658 3.33301 4.16634 3.33301C3.7061 3.33301 3.33301 3.7061 3.33301 4.16634C3.33301 4.62658 3.7061 4.99967 4.16634 4.99967Z" />
<path d="M8.55 20H2.29167C1.0275 20 0 18.9725 0 17.7083V2.29167C0 1.0275 1.0275 0 2.29167 0H12.7083C13.9725 0 15 1.0275 15 2.29167V6.875C15 7.22 14.72 7.5 14.375 7.5H1.25V17.7083C1.25 18.2825 1.7175 18.75 2.29167 18.75H8.55C8.895 18.75 9.175 19.03 9.175 19.375C9.175 19.72 8.895 20 8.55 20ZM1.25 6.25H13.75V2.29167C13.75 1.7175 13.2825 1.25 12.7083 1.25H2.29167C1.7175 1.25 1.25 1.7175 1.25 2.29167V6.25Z" />
</g>
<defs>
<clipPath id="clip0">
<rect width="20" height="20" />
</clipPath>
</defs>
</svg>
