<svg width="7" height="7" viewBox="0 0 7 7" fill="none" xmlns="http://www.w3.org/2000/svg">
<g clip-path="url(#clip0)">
<g clip-path="url(#clip1)">
<path d="M3.61166 3.00317L5.8339 0.727645C5.93889 0.621807 5.93889 0.463049 5.8339 0.357211C5.72891 0.251372 5.57143 0.251372 5.46645 0.357211L3.24421 2.63274L0.934479 0.357211C0.829491 0.251372 0.67201 0.251372 0.567022 0.357211C0.462034 0.463049 0.462034 0.621807 0.567022 0.727645L2.87675 3.00317L0.567022 5.2787C0.462034 5.38454 0.462034 5.5433 0.567022 5.64913C0.619516 5.70205 0.689508 5.71969 0.759499 5.71969C0.829491 5.71969 0.899483 5.70205 0.951977 5.64913L3.26171 3.37361L5.48394 5.64913C5.53644 5.70205 5.60643 5.71969 5.67642 5.71969C5.74641 5.71969 5.8164 5.70205 5.8514 5.64913C5.95639 5.5433 5.95639 5.38454 5.8514 5.2787L3.61166 3.00317Z" fill="white"/>
</g>
</g>
<defs>
<clipPath id="clip0">
<rect width="6.27907" height="6.27907" fill="white" transform="translate(0.277832 0.277832)"/>
</clipPath>
<clipPath id="clip1">
<rect width="5.44186" height="5.44186" fill="white" transform="translate(0.488281 0.277832)"/>
</clipPath>
</defs>
</svg>
