<svg width="20" height="20" viewBox="0 0 20 20" fill="white" xmlns="http://www.w3.org/2000/svg">
<g clip-path="url(#clip0)">
<path d="M16.9479 5.25977H4.56641V17.0517H16.9479V5.25977ZM9.87277 6.43896H11.6416V8.79734H9.87277V6.43896ZM15.7687 15.8725H5.7456V6.43896H8.69358V9.97653H12.8208V6.43896H15.7687V15.8725Z" />
<path d="M6.9248 11.1562H10.4624V12.3354H6.9248V11.1562Z" />
<path d="M6.9248 13.5146H8.87303V14.6938H6.9248V13.5146Z" />
<path d="M16.7713 2.50865H1.99042L3.31045 0.693601L2.35683 0L0.103516 3.09825L2.35679 6.1965L3.31045 5.5029L1.99042 3.68784H16.7713C17.8441 3.68784 18.717 4.56068 18.717 5.63351V16.8751C18.717 17.948 17.8441 18.8208 16.7713 18.8208H4.74356C3.67073 18.8208 2.79789 17.948 2.79789 16.8751V11.7457H1.6187V16.8751C1.6187 18.5982 3.02052 20 4.74356 20H16.7713C18.4944 20 19.8962 18.5982 19.8962 16.8751V5.63351C19.8962 3.91044 18.4944 2.50865 16.7713 2.50865Z" />
</g>
<defs>
<clipPath id="clip0">
<rect width="20" height="20" />
</clipPath>
</defs>
</svg>
