<svg width="16" height="16" viewBox="0 0 16 16" fill="none" xmlns="http://www.w3.org/2000/svg">
<g clip-path="url(#clip0)">
<path d="M15.8632 0.138294C15.7306 0.00566965 15.5317 -0.0351115 15.3577 0.0345134L0.29516 6.05944C0.122817 6.12838 0.00741072 6.2925 0.000785729 6.47804C-0.00580801 6.66354 0.0976918 6.83544 0.264692 6.91644L6.20431 9.79709L9.08499 15.7367C9.16355 15.8987 9.32761 16.0009 9.50664 16.0009C9.51221 16.0009 9.5178 16.0008 9.52339 16.0006C9.70886 15.994 9.87305 15.8786 9.94195 15.7063L15.9669 0.643856C16.0366 0.469731 15.9958 0.270888 15.8632 0.138294ZM1.62841 6.53588L13.5854 1.7531L6.45955 8.87894L1.62841 6.53588ZM9.46555 14.373L7.12246 9.54181L14.2484 2.41598L9.46555 14.373Z" fill="#BFBFBF"/>
</g>
<defs>
<clipPath id="clip0">
<rect width="16" height="16" fill="white"/>
</clipPath>
</defs>
</svg>
