<svg width="20" height="20" viewBox="0 0 20 20" fill="none" xmlns="http://www.w3.org/2000/svg">
<circle cx="10" cy="10" r="10" fill="#ECECEC"/>
<g clip-path="url(#clip0)">
<path d="M10.3138 15H9.68619C9.17859 15 8.76561 14.587 8.76561 14.0794V13.8671C8.5498 13.7982 8.34014 13.7111 8.13871 13.6069L7.98824 13.7574C7.62381 14.1222 7.04004 14.1115 6.68619 13.7572L6.24262 13.3137C5.88814 12.9596 5.87795 12.376 6.24273 12.0116L6.39309 11.8613C6.28885 11.6598 6.20184 11.4502 6.13287 11.2344H5.92057C5.41299 11.2344 5 10.8214 5 10.3138V9.68619C5 9.17859 5.41299 8.76562 5.92059 8.76562H6.13289C6.20186 8.5498 6.28887 8.34016 6.39311 8.13873L6.24264 7.98828C5.87807 7.6241 5.88813 7.04047 6.24275 6.68623L6.68637 6.24264C7.04104 5.88748 7.62467 5.87861 7.9884 6.24275L8.13873 6.39309C8.34016 6.28887 8.54982 6.20184 8.76562 6.13287V5.92057C8.76562 5.41297 9.17859 5 9.68621 5H10.3138C10.8214 5 11.2344 5.41297 11.2344 5.92057V6.13289C11.4502 6.20184 11.6598 6.28887 11.8613 6.39311L12.0117 6.24264C12.3762 5.87775 12.9599 5.88846 13.3138 6.24277L13.7574 6.68633C14.1118 7.04041 14.122 7.62398 13.7572 7.98838L13.6069 8.13873C13.7111 8.34016 13.7981 8.54979 13.8671 8.76562H14.0794C14.587 8.76562 15 9.17859 15 9.68619V10.3138C15 10.8214 14.587 11.2344 14.0794 11.2344H13.8671C13.7981 11.4502 13.7111 11.6598 13.6069 11.8613L13.7574 12.0117C14.1219 12.3759 14.1119 12.9596 13.7572 13.3138L13.3136 13.7574C12.959 14.1125 12.3753 14.1214 12.0116 13.7573L11.8613 13.6069C11.6598 13.7112 11.4502 13.7982 11.2344 13.8671V14.0795C11.2344 14.587 10.8214 15 10.3138 15ZM8.23666 12.9916C8.51648 13.1571 8.81766 13.2821 9.1318 13.3632C9.26117 13.3966 9.35156 13.5132 9.35156 13.6469V14.0794C9.35156 14.2639 9.5017 14.4141 9.68621 14.4141H10.3138C10.4983 14.4141 10.6485 14.2639 10.6485 14.0794V13.6469C10.6485 13.5132 10.7388 13.3966 10.8682 13.3632C11.1824 13.2821 11.4835 13.1571 11.7634 12.9916C11.8785 12.9235 12.0251 12.942 12.1197 13.0366L12.4261 13.343C12.5582 13.4753 12.7703 13.4722 12.8992 13.3432L13.3431 12.8993C13.4716 12.7709 13.4759 12.5587 13.3432 12.4262L13.0367 12.1196C12.9421 12.0251 12.9236 11.8785 12.9916 11.7633C13.1571 11.4835 13.2821 11.1824 13.3632 10.8682C13.3966 10.7388 13.5133 10.6485 13.6469 10.6485H14.0794C14.2639 10.6485 14.4141 10.4983 14.4141 10.3138V9.68621C14.4141 9.5017 14.2639 9.35158 14.0794 9.35158H13.6469C13.5133 9.35158 13.3966 9.26119 13.3632 9.13184C13.2821 8.81768 13.1571 8.5165 12.9916 8.2367C12.9236 8.12158 12.9421 7.97498 13.0367 7.88041L13.3431 7.57398C13.4755 7.44168 13.4721 7.22957 13.3432 7.10084L12.8994 6.65699C12.7707 6.52816 12.5585 6.52439 12.4262 6.65688L12.1197 6.96342C12.0251 7.05801 11.8785 7.07652 11.7634 7.00844C11.4836 6.84295 11.1824 6.71793 10.8682 6.63686C10.7389 6.60348 10.6485 6.4868 10.6485 6.35318V5.92057C10.6485 5.73605 10.4983 5.58594 10.3138 5.58594H9.68623C9.50172 5.58594 9.35158 5.73605 9.35158 5.92057V6.35314C9.35158 6.48676 9.26119 6.60344 9.13182 6.63682C8.81768 6.71789 8.5165 6.84291 8.23668 7.0084C8.12152 7.07646 7.97494 7.05795 7.88037 6.96338L7.57396 6.65695C7.44186 6.52469 7.22969 6.52775 7.10084 6.65682L6.65695 7.10068C6.5284 7.22908 6.5241 7.44125 6.65684 7.57383L6.96338 7.88037C7.05795 7.97494 7.07646 8.12154 7.0084 8.23666C6.84291 8.51646 6.71791 8.81764 6.63684 9.1318C6.60344 9.26117 6.48676 9.35154 6.35316 9.35154H5.92059C5.73607 9.35156 5.58594 9.50168 5.58594 9.68619V10.3138C5.58594 10.4983 5.73607 10.6484 5.92059 10.6484H6.35314C6.48676 10.6484 6.60342 10.7388 6.63682 10.8682C6.71789 11.1823 6.84291 11.4835 7.00838 11.7633C7.07645 11.8784 7.05793 12.025 6.96336 12.1196L6.65693 12.426C6.52447 12.5583 6.52793 12.7704 6.65682 12.8992L7.10066 13.343C7.22932 13.4719 7.4415 13.4756 7.57381 13.3431L7.88033 13.0366C7.95002 12.9669 8.095 12.9078 8.23666 12.9916Z" fill="#7D7D7D"/>
<path d="M10 12.176C8.80025 12.176 7.82422 11.2 7.82422 10.0002C7.82422 8.80052 8.80025 7.82446 10 7.82446C11.1997 7.82446 12.1758 8.80052 12.1758 10.0002C12.1758 11.2 11.1997 12.176 10 12.176ZM10 8.4104C9.12334 8.4104 8.41016 9.1236 8.41016 10.0002C8.41016 10.8769 9.12336 11.5901 10 11.5901C10.8766 11.5901 11.5898 10.8769 11.5898 10.0002C11.5898 9.1236 10.8767 8.4104 10 8.4104Z" fill="#7D7D7D"/>
</g>
<defs>
<clipPath id="clip0">
<rect width="10" height="10" fill="white" transform="translate(5 5)"/>
</clipPath>
</defs>
</svg>
