<svg width="60" height="59" viewBox="0 0 60 59" fill="none" xmlns="http://www.w3.org/2000/svg">
<path d="M31.1657 43.0446H27.5967C27.4703 43.0415 27.348 42.9991 27.2469 42.9233C27.1457 42.8474 27.0708 42.7419 27.0325 42.6214L25.9943 39.2835C25.2117 39.096 24.4634 38.7866 23.7769 38.3668L20.6779 39.9887C20.5644 40.0483 20.4349 40.0702 20.3081 40.0512C20.1813 40.0321 20.0638 39.9732 19.9728 39.8829L17.4497 37.3639C17.3585 37.2726 17.2987 37.1547 17.279 37.0272C17.2592 36.8997 17.2806 36.7693 17.34 36.6547L18.9698 33.5597C18.544 32.8749 18.2305 32.1263 18.0413 31.3423L14.6995 30.3041C14.5758 30.2657 14.4676 30.1886 14.3908 30.0843C14.3139 29.98 14.2725 29.8538 14.2725 29.7243V26.1591C14.2727 26.0301 14.3143 25.9045 14.3912 25.8009C14.468 25.6972 14.5761 25.621 14.6995 25.5832L18.0413 24.545C18.2364 23.7661 18.5453 23.0203 18.9581 22.3315L17.3283 19.2326C17.2686 19.1188 17.247 18.9889 17.2667 18.8619C17.2865 18.7349 17.3465 18.6177 17.438 18.5274L19.9806 16.0005C20.0709 15.909 20.1881 15.849 20.3151 15.8293C20.442 15.8095 20.572 15.8311 20.6858 15.8908L23.7847 17.5206C24.4737 17.1036 25.2211 16.792 26.0021 16.596L27.0325 13.2581C27.0714 13.1357 27.1481 13.0289 27.2516 12.9528C27.3551 12.8768 27.48 12.8355 27.6084 12.835H31.1775C31.3025 12.8396 31.423 12.8827 31.5226 12.9585C31.6222 13.0342 31.6959 13.1388 31.7338 13.2581L32.772 16.596C33.553 16.7922 34.3003 17.1038 34.9894 17.5206L38.0844 15.8908C38.1989 15.8314 38.3294 15.81 38.4569 15.8297C38.5844 15.8494 38.7023 15.9092 38.7935 16.0005L41.3165 18.5235C41.408 18.6138 41.468 18.731 41.4878 18.858C41.5075 18.985 41.486 19.1149 41.4262 19.2287L39.8043 22.3315C40.2205 23.0199 40.5297 23.7676 40.721 24.549L44.0589 25.5872C44.1813 25.6261 44.2882 25.7028 44.3642 25.8063C44.4402 25.9098 44.4815 26.0347 44.4821 26.1631V29.7282C44.4823 29.8573 44.4414 29.9831 44.3653 30.0873C44.2893 30.1916 44.1819 30.2689 44.0589 30.308L40.721 31.3423C40.5355 32.1256 40.226 32.8741 39.8043 33.5597L41.4341 36.6547C41.4935 36.7693 41.5149 36.8997 41.4952 37.0272C41.4754 37.1547 41.4156 37.2726 41.3244 37.3639L38.7857 39.8829C38.6943 39.9727 38.5769 40.0313 38.4503 40.0503C38.3236 40.0692 38.1942 40.0477 38.0805 39.9887L34.9816 38.3668C34.2951 38.7869 33.5468 39.0962 32.7641 39.2835L31.7338 42.6214C31.6953 42.7425 31.6197 42.8485 31.5178 42.9244C31.4159 43.0003 31.2928 43.0423 31.1657 43.0446ZM28.0315 41.8379H30.7073L31.7338 38.5979C31.7664 38.5007 31.8236 38.4136 31.8998 38.3449C31.9759 38.2763 32.0686 38.2285 32.1686 38.2062C33.0595 38.0278 33.9071 37.6778 34.6642 37.1758C34.7517 37.1186 34.8525 37.0849 34.9568 37.078C35.0612 37.0711 35.1655 37.0913 35.2597 37.1366L38.2607 38.7037L40.1569 36.8271L38.5898 33.8261C38.5368 33.7351 38.5089 33.6317 38.5089 33.5264C38.5089 33.4211 38.5368 33.3177 38.5898 33.2267C39.0918 32.4696 39.4418 31.6219 39.6202 30.7311C39.6436 30.6311 39.6918 30.5385 39.7602 30.4619C39.8286 30.3852 39.9152 30.3269 40.0119 30.2924L43.2519 29.2855V26.6058L40.0119 25.595C39.914 25.5624 39.8264 25.5047 39.7576 25.4277C39.6889 25.3508 39.6415 25.2572 39.6202 25.1562C39.4362 24.2665 39.0852 23.4197 38.5859 22.6606C38.534 22.57 38.5067 22.4673 38.5067 22.3629C38.5067 22.2584 38.534 22.1558 38.5859 22.0651L40.153 19.0602L38.2568 17.168L35.2558 18.7351C35.1649 18.7862 35.0624 18.8131 34.9581 18.8131C34.8538 18.8131 34.7512 18.7862 34.6603 18.7351C33.8998 18.2342 33.0519 17.8807 32.1608 17.6929C32.0607 17.6706 31.9681 17.6228 31.8919 17.5542C31.8157 17.4855 31.7586 17.3984 31.7259 17.3012L30.7152 14.0651H28.0433L27.0325 17.2816C26.9999 17.3788 26.9427 17.4659 26.8665 17.5346C26.7903 17.6032 26.6977 17.651 26.5976 17.6734C25.7067 17.8617 24.8589 18.2151 24.0981 18.7155C24.0072 18.7666 23.9047 18.7935 23.8004 18.7935C23.6961 18.7935 23.5935 18.7666 23.5026 18.7155L20.4977 17.1484L18.6055 19.0406L20.1726 22.0455C20.2237 22.1364 20.2506 22.239 20.2506 22.3433C20.2506 22.4476 20.2237 22.5501 20.1726 22.641C19.6737 23.4017 19.3228 24.2497 19.1383 25.1405C19.1152 25.2403 19.0672 25.3326 18.9987 25.4087C18.9301 25.4847 18.8433 25.5421 18.7465 25.5754L15.5026 26.5862V29.262L18.7465 30.2688C18.8433 30.3034 18.9298 30.3617 18.9982 30.4384C19.0667 30.515 19.1148 30.6076 19.1383 30.7076C19.3167 31.5984 19.6666 32.446 20.1686 33.2032C20.2246 33.2925 20.256 33.395 20.2594 33.5003C20.2628 33.6056 20.2383 33.7099 20.1882 33.8026L18.6211 36.8036L20.5134 38.692L23.5183 37.1249C23.6117 37.0766 23.716 37.0533 23.8211 37.0574C23.9262 37.0616 24.0284 37.0929 24.1177 37.1484C24.875 37.6501 25.7226 38.0001 26.6133 38.1787C26.7134 38.2011 26.806 38.2489 26.8822 38.3175C26.9584 38.3861 27.0156 38.4733 27.0482 38.5705L28.0315 41.8379Z" fill="#005AFF"/>
<path d="M29.3829 34.6291C28.059 34.6306 26.7643 34.2394 25.6628 33.5049C24.5613 32.7704 23.7024 31.7256 23.1948 30.5028C22.6873 29.28 22.5539 27.9341 22.8115 26.6355C23.0691 25.3369 23.7062 24.1438 24.6421 23.2074C25.578 22.2709 26.7707 21.6332 28.0692 21.3748C29.3676 21.1164 30.7136 21.249 31.9367 21.7558C33.1598 22.2627 34.2051 23.1209 34.9402 24.222C35.6753 25.3231 36.0673 26.6175 36.0666 27.9415C36.0645 29.7138 35.3598 31.413 34.1069 32.6666C32.854 33.9202 31.1552 34.6259 29.3829 34.6291ZM29.3829 22.4606C28.2981 22.4606 27.2377 22.7823 26.3357 23.3849C25.4337 23.9876 24.7307 24.8442 24.3156 25.8465C23.9005 26.8487 23.7918 27.9515 24.0035 29.0154C24.2151 30.0794 24.7375 31.0567 25.5046 31.8238C26.2716 32.5908 27.2489 33.1132 28.3129 33.3248C29.3768 33.5365 30.4796 33.4279 31.4819 33.0127C32.4841 32.5976 33.3407 31.8946 33.9434 30.9926C34.5461 30.0906 34.8677 29.0302 34.8677 27.9454C34.8677 26.4907 34.2899 25.0957 33.2613 24.0671C32.2327 23.0385 30.8376 22.4606 29.3829 22.4606Z" fill="#FFA000"/>
</svg>
