<svg width="30" height="30" viewBox="0 0 30 30" fill="none" xmlns="http://www.w3.org/2000/svg">
<g clip-path="url(#clip0)">
<path d="M23.943 23.6245C23.9025 23.5592 23.8474 23.5041 23.7821 23.4636H23.7971L21.1944 21.8314V9.39062C21.1946 9.32761 21.1828 9.26509 21.1596 9.2065L17.6762 0.313828C17.6224 0.177664 17.5114 0.0720416 17.3726 0.0252021C17.235 -0.0208288 17.0841 -0.00446915 16.9596 0.0699889L10.9283 3.6181L9.24633 4.7726C9.04329 4.89402 8.95384 5.1416 9.03235 5.36478L11.7444 13.1179V21.1546L6.22571 24.3295C5.98933 24.4698 5.91145 24.7751 6.05166 25.0114C6.09421 25.083 6.15405 25.1429 6.22571 25.1854L14.0087 29.9328C14.1626 30.0217 14.3523 30.0217 14.5063 29.9328L23.7821 24.3096C24.0158 24.1649 24.0878 23.8581 23.943 23.6245ZM16.9447 1.2146L20.2042 9.47528V23.3293L14.7551 26.7431V13.1279C14.7555 13.0738 14.7471 13.02 14.7302 12.9686L11.7842 4.27006L16.9447 1.2146ZM10.0973 5.3947L10.9233 4.8274L13.7598 13.2125V26.7879L12.7397 26.2007V13.0134C12.7391 12.9574 12.729 12.9019 12.7098 12.8492L10.0973 5.3947ZM14.2575 28.9376L7.44988 24.7725L11.7444 22.2843V26.4694C11.7312 26.6692 11.8391 26.8574 12.0181 26.9471L14.0087 28.0767L14.0833 28.1066H14.1231H14.2027H14.2525C14.2938 28.1118 14.3356 28.1118 14.3769 28.1066H14.4217L14.5013 28.0718L20.9755 24.031C21.1213 23.9399 21.2098 23.7799 21.2094 23.608V23.0158L22.5978 23.8867L14.2575 28.9376Z" fill="#005AFF"/>
<path d="M19.5326 9.27189L17.1888 2.85742C17.0899 2.60096 16.8019 2.47319 16.5455 2.57197C16.529 2.57831 16.5128 2.58559 16.4971 2.59368L12.9539 4.60908C12.7418 4.73026 12.6491 4.98753 12.735 5.21619L15.1634 11.6854C15.2003 11.8334 15.303 11.9562 15.4421 12.0188C15.5827 12.068 15.7379 12.0515 15.8651 11.974L19.3236 9.86904C19.5271 9.74557 19.6147 9.49526 19.5326 9.27189ZM15.8352 10.8195L13.7701 5.29582L16.4374 3.76809L18.4279 9.24203L15.8352 10.8195Z" fill="#005AFF"/>
<path d="M19.544 11.2627C19.4076 11.1002 19.1833 11.042 18.9851 11.1178L15.8501 13.0486C15.6396 13.2253 15.6121 13.5392 15.7889 13.7497C15.9252 13.9122 16.1496 13.9704 16.3477 13.8946L19.4828 11.9638C19.6933 11.7871 19.7207 11.4732 19.544 11.2627Z" fill="#005AFF"/>
</g>
<defs>
<clipPath id="clip0">
<rect width="30" height="30" fill="white"/>
</clipPath>
</defs>
</svg>
