<svg width="24" height="24" viewBox="0 0 24 24" fill="none" xmlns="http://www.w3.org/2000/svg">
<path d="M12 0C5.373 0 0 5.373 0 12C0 18.627 5.373 24 12 24C18.627 24 24 18.627 24 12C24 5.373 18.627 0 12 0ZM17.8785 14.658C15.93 17.6565 13.1145 18.0315 11.8245 18.0315C11.4285 18.0315 11.178 17.997 11.1375 17.991C10.7715 17.9355 10.5 17.6205 10.5 17.25V12.96L8.4315 13.4775C8.3715 13.4925 8.31 13.5 8.25 13.5C7.9125 13.5 7.608 13.2735 7.5225 12.9315C7.422 12.531 7.6665 12.123 8.0685 12.0225L10.5 11.415V9.96L8.4315 10.4775C8.3715 10.4925 8.31 10.5 8.25 10.5C7.9125 10.5 7.608 10.2735 7.5225 9.9315C7.422 9.531 7.6665 9.123 8.0685 9.0225L10.5 8.415V6.75C10.5 6.336 10.836 6 11.25 6C11.664 6 12 6.336 12 6.75V8.04L14.0685 7.5225C14.4615 7.4175 14.877 7.6665 14.9775 8.0685C15.0765 8.4705 14.8335 8.877 14.4315 8.9775L12 9.585V11.04L14.0685 10.5225C14.4615 10.419 14.877 10.6665 14.9775 11.0685C15.0765 11.4705 14.8335 11.877 14.4315 11.9775L12 12.585V16.5315C13.0425 16.4985 15.138 16.1235 16.6215 13.8405C16.848 13.494 17.316 13.398 17.658 13.6215C18.006 13.8465 18.1035 14.3115 17.8785 14.658Z" fill="#005AFF"/>
</svg>
