<svg width="24" height="24" viewBox="0 0 24 24" fill="none" xmlns="http://www.w3.org/2000/svg">
<g clip-path="url(#clip0)">
<path d="M23.5901 8.75756L22.4163 7.58377C21.868 7.03542 20.9758 7.03552 20.4275 7.58377L17.9551 10.0562V2.10938C17.9551 0.946266 17.0088 0 15.8457 0H2.11133C0.948219 0 0.00195312 0.946266 0.00195312 2.10938V21.8906C0.00195312 23.0537 0.948219 24 2.11133 24H15.8457C17.0088 24 17.9551 23.0537 17.9551 21.8906V16.311L23.5901 10.7463C24.1384 10.198 24.1384 9.30586 23.5901 8.75756ZM15.1807 17.0743L13.0656 18.0614L14.0518 15.9483L19.3006 10.6995L20.4611 11.8599L15.1807 17.0743ZM16.5488 21.8906C16.5488 22.2783 16.2334 22.5938 15.8457 22.5938H2.11133C1.72363 22.5938 1.4082 22.2783 1.4082 21.8906V2.10938C1.4082 1.72167 1.72363 1.40625 2.11133 1.40625H15.8457C16.2334 1.40625 16.5488 1.72167 16.5488 2.10938V11.4624C12.6498 15.3615 12.9044 15.0813 12.8298 15.2413L10.9736 19.2188C10.8486 19.4868 10.9045 19.8043 11.1136 20.0134C11.3226 20.2225 11.6403 20.2784 11.9081 20.1533L15.8856 18.2971C16.0315 18.2291 16.0555 18.1868 16.5488 17.6996V21.8906ZM21.4616 10.8719L20.2949 9.70514L21.4219 8.57812L22.5953 9.7523L21.4616 10.8719Z" fill="#FFA000"/>
<path d="M3.75049 5.95312H14.2505C14.6388 5.95312 14.9536 5.63831 14.9536 5.25C14.9536 4.86169 14.6388 4.54688 14.2505 4.54688H3.75049C3.36218 4.54688 3.04736 4.86169 3.04736 5.25C3.04736 5.63831 3.36218 5.95312 3.75049 5.95312Z" fill="#FFA000"/>
<path d="M3.75049 9.70312H12.0005C12.3888 9.70312 12.7036 9.38831 12.7036 9C12.7036 8.61169 12.3888 8.29688 12.0005 8.29688H3.75049C3.36218 8.29688 3.04736 8.61169 3.04736 9C3.04736 9.38831 3.36218 9.70312 3.75049 9.70312Z" fill="#FFA000"/>
<path d="M9.75049 12.0469H3.75049C3.36218 12.0469 3.04736 12.3617 3.04736 12.75C3.04736 13.1383 3.36218 13.4531 3.75049 13.4531H9.75049C10.1388 13.4531 10.4536 13.1383 10.4536 12.75C10.4536 12.3617 10.1388 12.0469 9.75049 12.0469Z" fill="#FFA000"/>
</g>
<defs>
<clipPath id="clip0">
<rect width="24" height="24" fill="white"/>
</clipPath>
</defs>
</svg>
