<svg width="30" height="30" viewBox="0 0 30 30" fill="none" xmlns="http://www.w3.org/2000/svg">
<path d="M0.933594 20.2169C3.05299 25.9288 8.55113 29.9995 15.0006 29.9995C21.4501 29.9995 26.9482 25.9288 29.0676 20.2169L15.0006 18.9126L0.933594 20.2169Z" fill="#FFDA44"/>
<path d="M15.0006 0C8.55113 0 3.05299 4.07062 0.933594 9.78264L15.0006 11.0869L29.0676 9.78258C26.9482 4.07062 21.4501 0 15.0006 0Z" fill="black"/>
<path d="M0.932988 9.78271C0.330059 11.4077 0 13.1653 0 15.0001C0 16.8349 0.330059 18.5925 0.932988 20.2174H29.0671C29.67 18.5925 30 16.8349 30 15.0001C30 13.1653 29.67 11.4077 29.067 9.78271H0.932988Z" fill="#D80027"/>
</svg>
