<svg width="30" height="30" viewBox="0 0 30 30" fill="none" xmlns="http://www.w3.org/2000/svg">
<path d="M15 30C23.2843 30 30 23.2843 30 15C30 6.71573 23.2843 0 15 0C6.71573 0 0 6.71573 0 15C0 23.2843 6.71573 30 15 30Z" fill="#D80027"/>
<path d="M14.3852 12.2573L15.6159 13.9533L17.6091 13.307L16.3764 15.0016L17.607 16.6975L15.6145 16.0488L14.3819 17.7433L14.3832 15.6479L12.3906 14.9992L14.3839 14.3529L14.3852 12.2573Z" fill="#F0F0F0"/>
<path d="M11.0265 19.2393C8.68533 19.2393 6.78736 17.3413 6.78736 15.0001C6.78736 12.659 8.68533 10.761 11.0265 10.761C11.7565 10.761 12.4433 10.9456 13.0429 11.2705C12.1022 10.3505 10.8157 9.78271 9.39607 9.78271C6.51455 9.78271 4.17871 12.1186 4.17871 15.0001C4.17871 17.8815 6.51461 20.2174 9.39607 20.2174C10.8158 20.2174 12.1023 19.6496 13.0429 18.7296C12.4433 19.0546 11.7565 19.2393 11.0265 19.2393Z" fill="#F0F0F0"/>
</svg>
